<?xml version="1.0" encoding="utf-8"?>
<!-- Generator: Adobe Illustrator 16.0.0, SVG Export Plug-In . SVG Version: 6.00 Build 0)  -->
<!DOCTYPE svg PUBLIC "-//W3C//DTD SVG 1.1//EN" "http://www.w3.org/Graphics/SVG/1.1/DTD/svg11.dtd">
<svg version="1.1" id="Laag_1" xmlns="http://www.w3.org/2000/svg" xmlns:xlink="http://www.w3.org/1999/xlink" x="0px" y="0px"
	 width="231px" height="73px" viewBox="125.5 312.5 231 73" enable-background="new 125.5 312.5 231 73" xml:space="preserve">
<g enable-background="new    ">
	<path fill="#4F4F4F" d="M204.597,380.271c-3.98-2.411-8.241-8.466-8.241-16.65c0-3.42,0.897-8.745,5.214-13.959
		c4.933-5.999,10.483-7.12,15.192-7.12c3.532,0,8.129,0.729,12.558,4.429c4.092,3.532,7.68,9.026,7.68,16.763
		c0,4.093-1.29,8.353-4.205,12.277c-3.419,4.541-8.409,7.904-16.146,7.904C213.903,383.915,209.026,383.018,204.597,380.271z
		 M231.506,364.181c0-12.277-8.745-19.509-14.968-19.509c-0.841,0-4.653-0.673-8.858,3.308c-3.756,3.588-5.606,9.25-5.606,13.847
		c0,14.744,10.259,19.958,15.024,19.958C229.432,381.785,231.506,369.171,231.506,364.181z"/>
	<path fill="#4F4F4F" d="M246.309,350.671c0-3.308-1.682-5.157-3.7-5.214l-2.298-0.056c-0.28,0-0.336-0.225-0.336-0.393v-1.457
		c0-0.225,0.056-0.337,0.336-0.337s0.729,0.057,1.57,0.057c0.841,0.056,2.074,0.111,3.98,0.111c1.906,0,3.083-0.111,3.756-0.111
		c0.729,0,1.177,0.224,1.626,0.729c0.279,0.336,11.156,14.464,11.772,15.248c0.616,0.785,10.091,12.39,11.437,14.184h0.225v-6.671
		c0-4.989-0.057-7.736-0.169-10.54c-0.056-2.186-0.336-7.68-0.673-8.633c-0.448-1.401-1.514-2.187-3.083-2.187h-1.794
		c-0.225,0-0.336-0.112-0.336-0.393v-1.457c0-0.225,0.111-0.337,0.336-0.337c0.785,0,2.578,0.168,6.166,0.168
		c3.364,0,4.71-0.168,5.438-0.168c0.393,0,0.448,0.168,0.448,0.393v1.401c0,0.225-0.111,0.393-0.336,0.393h-1.514
		c-1.514,0-2.074,0.953-2.187,3.083c-0.224,3.757-0.224,9.307-0.224,12.95v20.967c0,0.785-0.057,1.346-0.281,1.346
		c-0.672,0-1.177-0.673-1.346-0.897c-0.056-0.111-3.363-4.26-6.839-8.633c-3.925-4.878-8.017-10.035-8.353-10.371
		c-0.617-0.561-10.932-13.511-11.269-13.959h-0.336v12.445c0,5.213,0.448,14.352,0.561,15.473c0.224,2.187,0.561,3.251,2.074,3.251
		h1.683c0.392,0,0.448,0.169,0.448,0.505v1.233c0,0.336-0.057,0.448-0.448,0.448c-0.562,0-3.924-0.168-5.438-0.168
		c-1.177,0-5.045,0.168-5.606,0.168c-0.224,0-0.28-0.112-0.28-0.393v-1.457c0-0.168,0.056-0.337,0.336-0.337h1.906
		c1.625,0,2.242-0.673,2.522-3.419c0.112-1.065,0.225-7.456,0.225-17.436V350.671z"/>
	<path fill="#4F4F4F" d="M289.815,381c-0.674-0.505-1.01-0.673-1.29-0.673c-0.336,0-0.561,0.393-0.897,0.953
		c-0.336,0.616-0.616,0.673-1.008,0.673c-0.337,0-0.617-0.28-0.506-0.897c0.225-1.401,0.785-8.521,0.953-10.146
		c0.057-0.337,0.169-0.337,0.393-0.337l0.842,0.057c0.224,0,0.336,0.112,0.336,0.448c0.057,1.794,0.168,3.644,2.018,6.503
		c1.683,2.635,4.766,4.148,7.85,4.148c3.363,0,7.624-2.074,7.624-7.119c0-5.774-4.149-7.905-8.634-9.475
		c-1.738-0.616-5.773-2.019-8.185-4.541c-1.851-1.85-2.804-4.484-2.804-8.185c0-2.804,1.738-5.55,3.477-7.176
		c2.018-1.906,4.82-2.691,7.848-2.691c3.196,0,5.662,0.953,6.615,1.401c0.505,0.28,0.785,0.225,1.066-0.056l0.729-0.673
		c0.279-0.224,0.448-0.336,0.729-0.336s0.448,0.448,0.448,0.953c0,1.962,0.729,7.68,0.785,8.913c0,0.28-0.056,0.393-0.28,0.448
		l-0.673,0.169c-0.169,0.056-0.28,0-0.337-0.169c-0.448-1.625-1.177-3.812-3.476-6.223c-1.513-1.625-3.476-2.41-6.11-2.41
		c-4.989,0-6.783,3.7-6.783,6.559c0,1.57,0.336,3.42,1.738,4.878c1.625,1.626,4.765,2.858,6.391,3.363
		c3.868,1.233,7.008,2.187,9.025,4.653c1.457,1.737,2.467,3.924,2.467,7.624c0,6.615-4.036,12.277-11.437,12.277
		C294.803,383.915,292.057,382.738,289.815,381z"/>
	<path fill="#4F4F4F" d="M324.405,367.489c-0.561,1.401-3.644,9.923-3.924,11.101c-0.057,0.392-0.168,0.952-0.168,1.232
		c0,0.785,0.672,1.233,1.906,1.233h2.635c0.393,0,0.561,0.112,0.561,0.393v1.29c0,0.392-0.168,0.504-0.449,0.504
		c-0.784,0-3.083-0.168-6.391-0.168c-4.092,0-5.326,0.168-6.11,0.168c-0.28,0-0.393-0.112-0.393-0.448v-1.346
		c0-0.28,0.224-0.393,0.448-0.393h1.963c1.682,0,2.467-0.784,3.251-2.578c0.393-0.897,4.485-11.269,6.11-15.865
		c0.393-1.121,4.934-13.175,5.438-14.688c0.168-0.561,0.448-1.289,0.056-1.906c-0.168-0.224-0.393-0.504-0.393-0.729
		c0-0.168,0.112-0.393,0.505-0.504c1.569-0.337,4.036-2.019,4.653-2.804c0.28-0.28,0.448-0.504,0.729-0.504
		c0.336,0,0.449,0.336,0.617,0.952c1.064,3.532,5.438,16.09,6.502,19.678c1.29,4.373,4.934,14.8,5.719,16.426
		c0.953,1.85,2.41,2.522,3.813,2.522h1.85c0.336,0,0.449,0.169,0.449,0.393v1.401c0,0.28-0.169,0.393-0.561,0.393
		c-1.01,0-2.188-0.168-6.729-0.168c-4.652,0-6.615,0.168-7.904,0.168c-0.28,0-0.448-0.168-0.448-0.504v-1.29
		c0-0.336,0.168-0.393,0.505-0.393h1.401c1.569,0,2.074-0.561,1.682-2.13c-0.448-2.019-2.747-9.194-3.532-11.437H324.405z
		 M337.524,365.47c-0.505-1.682-5.046-15.696-5.326-16.537c-0.168-0.393-0.28-0.785-0.449-0.785c-0.224,0-0.447,0.393-0.616,0.841
		c-0.28,0.729-5.606,15.08-5.998,16.481H337.524z"/>
</g>
<path fill="none" stroke="#4F4F4F" stroke-miterlimit="10" d="M537.166,237.833"/>
<path fill="none" stroke="#4F4F4F" stroke-miterlimit="10" d="M-6.833,237.833"/>
<g id="Laag_2_1_">
	<path fill="#4F4F4F" d="M170.362,383.074c0,0-16.049-3.17-25.861-37.241c-6.047-27.459-15.333-29.812-15.333-29.812
		s18.938,0,24.127,21.791c4.438,21.5,8.188,39.115,17.25,42.688c0,0,4.188,2.189,8.813-21.75
		c4.311-22.249,11.565-24.227,20.081-30.188c0,0-5.354,2.935-10.938,25.604C183,376.841,171.833,383.074,170.362,383.074z"/>
</g>
<text transform="matrix(1 0 0 1 213.5017 407.2732)" display="none" fill="#A3A3A3" enable-background="new    " font-family="'Calibri'" font-size="16.0505" letter-spacing="2">DESIGN</text>
<text transform="matrix(1 0 0 1 211.9348 413.1248)" display="none" fill="#A3A3A3" enable-background="new    " font-family="'ChaparralPro-Regular'" font-size="15.9605" letter-spacing="3">DESIGN</text>
</svg>
