<?xml version="1.0" encoding="utf-8"?>
<!-- Generator: Adobe Illustrator 16.0.0, SVG Export Plug-In . SVG Version: 6.00 Build 0)  -->
<!DOCTYPE svg PUBLIC "-//W3C//DTD SVG 1.1//EN" "http://www.w3.org/Graphics/SVG/1.1/DTD/svg11.dtd">
<svg version="1.1" id="Layer_1" xmlns="http://www.w3.org/2000/svg" xmlns:xlink="http://www.w3.org/1999/xlink" x="0px" y="0px"
	 width="540px" height="288px" viewBox="0 0 540 288" enable-background="new 0 0 540 288" xml:space="preserve">
<g>
	<g>
		<defs>
			<rect id="SVGID_1_" y="0" width="540" height="288"/>
		</defs>
		<use xlink:href="#SVGID_1_"  overflow="visible" fill="#001323"/>
		<clipPath id="SVGID_2_">
			<use xlink:href="#SVGID_1_"  overflow="visible"/>
		</clipPath>
		<g clip-path="url(#SVGID_2_)">
			<g>
				<g>
					
						<rect x="299.113" y="226.371" transform="matrix(0.9053 0.4248 -0.4248 0.9053 129.1028 -126.1638)" fill="#470303" width="96.728" height="0.126"/>
				</g>
				<g>
					
						<rect x="300.498" y="227.824" transform="matrix(0.9053 0.4248 -0.4248 0.9053 130.0121 -127.3401)" fill="#470303" width="100.144" height="0.125"/>
				</g>
				<g>
					<polygon fill="#470303" points="548.604,319.089 406.774,254.13 406.723,254.243 548.604,319.227 					"/>
				</g>
				<g>
					<polygon fill="#470303" points="548.604,319.089 409.881,255.553 409.829,255.666 548.604,319.227 					"/>
				</g>
				<g>
					
						<rect x="535.481" y="195.626" transform="matrix(0.9954 0.0955 -0.0955 0.9954 21.1436 -50.4898)" fill="#470303" width="5.339" height="0.126"/>
				</g>
				<g>
					<polygon fill="#470303" points="548.604,204.002 539.94,198.518 539.874,198.623 548.604,204.149 					"/>
				</g>
				<g>
					
						<rect x="538.882" y="195.952" transform="matrix(0.9954 0.0957 -0.0957 0.9954 21.2396 -50.9169)" fill="#470303" width="5.338" height="0.126"/>
				</g>
				<g>
					<polygon fill="#470303" points="548.604,203.031 544.564,200.76 544.503,200.869 548.604,203.176 					"/>
				</g>
				<g>
					<polygon fill="#470303" points="548.604,196.892 513.823,175.041 513.757,175.147 548.604,197.04 					"/>
				</g>
				<g>
					<polygon fill="#470303" points="548.604,175.66 517.368,148.911 517.287,149.007 548.604,175.825 					"/>
				</g>
				<g>
					<polygon fill="#470303" points="548.604,175.66 514.773,146.689 514.692,146.784 548.604,175.825 					"/>
				</g>
				<g>
					
						<rect x="508.22" y="148.675" transform="matrix(0.9866 0.1631 -0.1631 0.9866 32.0609 -80.8471)" fill="#470303" width="0.126" height="12.22"/>
				</g>
				<g>
					<polygon fill="#470303" points="548.604,203.031 540.098,198.248 540.036,198.358 548.604,203.176 					"/>
				</g>
				<g>
					
						<rect x="508.579" y="183.232" transform="matrix(0.7541 0.6568 -0.6568 0.7541 248.5166 -297.106)" fill="#470303" width="24.819" height="0.126"/>
				</g>
				<g>
					
						<rect x="527.921" y="145.275" transform="matrix(0.8392 -0.5439 0.5439 0.8392 -7.7042 314.561)" fill="#470303" width="0.126" height="50.063"/>
				</g>
				<g>
					
						<rect x="507.291" y="182.111" transform="matrix(0.7541 0.6568 -0.6568 0.7541 247.4505 -296.5289)" fill="#470303" width="24.819" height="0.125"/>
				</g>
				<g>
					
						<rect x="526.991" y="143.841" transform="matrix(0.8392 -0.5439 0.5439 0.8392 -7.0739 313.825)" fill="#470303" width="0.126" height="50.064"/>
				</g>
				<g>
					<polygon fill="#470303" points="329.394,322.296 318.8,268.313 318.676,268.336 329.266,322.296 					"/>
				</g>
				<g>
					<polygon fill="#470303" points="544.5,322.296 333.507,260.717 333.472,260.838 544.051,322.296 					"/>
				</g>
				<g>
					<polygon fill="#470303" points="329.394,322.296 317.483,261.606 317.36,261.631 329.266,322.296 					"/>
				</g>
				<g>
					<polygon fill="#470303" points="544.5,322.296 322.027,257.366 321.992,257.487 544.051,322.296 					"/>
				</g>
				<g>
					<polygon fill="#470303" points="548.604,137.672 524.063,119.938 523.988,120.039 548.604,137.827 					"/>
				</g>
				<g>
					<polygon fill="#470303" points="548.604,129.398 524.675,118.842 524.624,118.957 548.604,129.535 					"/>
				</g>
				<g>
					<polygon fill="#470303" points="548.604,137.672 526.831,121.938 526.758,122.04 548.604,137.827 					"/>
				</g>
				<g>
					<polygon fill="#470303" points="548.604,129.398 527.801,120.221 527.75,120.336 548.604,129.535 					"/>
				</g>
				<g>
					<polygon fill="#470303" points="548.604,158.666 521.554,153.874 521.532,153.998 548.604,158.793 					"/>
				</g>
				<g>
					
						<rect x="540.888" y="164.516" transform="matrix(0.9901 -0.1403 0.1403 0.9901 -21.4987 77.8048)" fill="#470303" width="0.125" height="53.659"/>
				</g>
				<g>
					<polygon fill="#470303" points="548.604,178.948 542.105,168.315 541.998,168.381 548.604,179.189 					"/>
				</g>
				<g>
					<polygon fill="#470303" points="548.604,158.666 518.189,153.278 518.168,153.401 548.604,158.793 					"/>
				</g>
				<g>
					
						<rect x="212.701" y="177.625" transform="matrix(0.9072 0.4207 -0.4207 0.9072 96.3116 -81.2744)" fill="#470303" width="39.385" height="0.126"/>
				</g>
				<g>
					
						<rect x="186.268" y="171.57" transform="matrix(0.9011 0.4336 -0.4336 0.9011 96.2481 -78.749)" fill="#470303" width="68.999" height="0.125"/>
				</g>
				<g>
					
						<rect x="188.074" y="173.224" transform="matrix(0.9138 0.4062 -0.4062 0.9138 89.4629 -74.9672)" fill="#470303" width="66.553" height="0.125"/>
				</g>
				<g>
					
						<rect x="223.556" y="179.029" transform="matrix(0.8963 0.4434 -0.4434 0.8963 103.9594 -86.4624)" fill="#470303" width="26.656" height="0.126"/>
				</g>
				<g>
					
						<rect x="261.633" y="221.428" transform="matrix(0.9175 0.3977 -0.3977 0.9175 115.4245 -113.6042)" fill="#470303" width="139.965" height="0.124"/>
				</g>
				<g>
					
						<rect x="240.867" y="182.768" transform="matrix(0.8872 0.4614 -0.4614 0.8872 111.9965 -92.4756)" fill="#470303" width="8.545" height="0.125"/>
				</g>
				<g>
					
						<rect x="214.172" y="178.703" transform="matrix(0.9072 0.4207 -0.4207 0.9072 96.9744 -82.149)" fill="#470303" width="41.094" height="0.126"/>
				</g>
				<g>
					
						<rect x="187.807" y="172.31" transform="matrix(0.9011 0.4336 -0.4336 0.9011 96.7173 -79.3412)" fill="#470303" width="68.999" height="0.126"/>
				</g>
				<g>
					
						<rect x="263.789" y="195.75" transform="matrix(0.9468 0.3218 -0.3218 0.9468 77.7026 -78.4377)" fill="#470303" width="24.635" height="0.126"/>
				</g>
				<g>
					
						<rect x="189.636" y="173.917" transform="matrix(0.9138 0.4062 -0.4062 0.9138 89.8765 -75.5401)" fill="#470303" width="66.552" height="0.126"/>
				</g>
				<g>
					
						<rect x="228.149" y="181.301" transform="matrix(0.8963 0.4434 -0.4434 0.8963 105.4409 -88.2624)" fill="#470303" width="26.656" height="0.126"/>
				</g>
				<g>
					
						<rect x="245.415" y="185.132" transform="matrix(0.8872 0.4614 -0.4614 0.8872 113.6001 -94.3069)" fill="#470303" width="8.545" height="0.125"/>
				</g>
				<g>
					<polygon fill="#470303" points="427.39,322.296 263.524,193.568 263.446,193.667 427.187,322.296 					"/>
				</g>
				<g>
					<polygon fill="#470303" points="427.39,322.296 264.867,194.624 264.789,194.723 427.187,322.296 					"/>
				</g>
				<g>
					
						<rect x="461.035" y="247.516" transform="matrix(0.8817 0.4719 -0.4719 0.8817 172.7545 -193.7448)" fill="#470303" width="23.291" height="0.125"/>
				</g>
				<g>
					<polygon fill="#470303" points="548.604,277.812 495.465,258.466 495.422,258.583 548.604,277.945 					"/>
				</g>
				<g>
					<polygon fill="#470303" points="548.604,274.289 462.828,241.167 462.783,241.284 548.604,274.423 					"/>
				</g>
				<g>
					
						<rect x="370.437" y="219.171" transform="matrix(0.9179 0.3969 -0.3969 0.9179 120.7916 -145.1939)" fill="#470303" width="81.489" height="0.125"/>
				</g>
				<g>
					<polygon fill="#470303" points="548.604,274.289 461.234,240.552 461.189,240.669 548.604,274.423 					"/>
				</g>
				<g>
					
						<rect x="372.005" y="219.848" transform="matrix(0.9179 0.3969 -0.3969 0.9179 121.1854 -145.7576)" fill="#470303" width="81.488" height="0.126"/>
				</g>
				<g>
					<polygon fill="#470303" points="548.604,314.625 267.438,193.582 267.388,193.696 548.604,314.761 					"/>
				</g>
				<g>
					
						<rect x="265.316" y="196.849" transform="matrix(0.9468 0.3218 -0.3218 0.9468 78.2249 -79.4176)" fill="#470303" width="28.05" height="0.126"/>
				</g>
				<g>
					
						<rect x="171.929" y="147.571" transform="matrix(0.9951 0.0987 -0.0987 0.9951 15.4075 -16.315)" fill="#470303" width="1.485" height="0.126"/>
				</g>
				<g>
					
						<rect x="178.883" y="168.584" transform="matrix(0.8886 0.4588 -0.4588 0.8886 101.6194 -81.0223)" fill="#470303" width="77.382" height="0.125"/>
				</g>
				<g>
					
						<rect x="187.228" y="149.097" transform="matrix(0.9951 0.0993 -0.0993 0.9951 15.7365 -17.9241)" fill="#470303" width="1.485" height="0.125"/>
				</g>
				<g>
					<polygon fill="#470303" points="548.604,314.625 264.3,192.231 264.25,192.346 548.604,314.761 					"/>
				</g>
				<g>
					
						<rect x="182.014" y="169.76" transform="matrix(0.8886 0.4588 -0.4588 0.8886 102.412 -81.9356)" fill="#470303" width="75.673" height="0.125"/>
				</g>
				<g>
					
						<rect x="186.705" y="170.034" transform="matrix(0.8788 0.4772 -0.4772 0.8788 108.1168 -85.4545)" fill="#470303" width="71.135" height="0.126"/>
				</g>
				<g>
					<polygon fill="#470303" points="-20.593,283.265 -20.593,283.405 15.046,301.884 15.104,301.772 					"/>
				</g>
				<g>
					<polygon fill="#470303" points="65.687,322.296 36.875,311.548 36.831,311.665 65.327,322.296 					"/>
				</g>
				<g>
					<polygon fill="#470303" points="-20.593,283.265 -20.593,283.405 21.113,305.029 21.17,304.918 					"/>
				</g>
				<g>
					<polygon fill="#470303" points="65.686,322.296 32.074,309.757 32.03,309.875 65.327,322.296 					"/>
				</g>
				<g>
					
						<rect x="236.789" y="260.744" transform="matrix(0.8454 0.5342 -0.5342 0.8454 193.2275 -145.8745)" fill="#470303" width="223.561" height="0.125"/>
				</g>
				<g>
					
						<rect x="247.257" y="191.018" transform="matrix(0.9975 -0.0701 0.0701 0.9975 -12.9702 17.8236)" fill="#470303" width="0.125" height="5.173"/>
				</g>
				<g>
					<polygon fill="#470303" points="435.793,322.296 253.185,206.987 253.118,207.094 435.559,322.296 					"/>
				</g>
				<g>
					<polygon fill="#470303" points="435.986,322.296 419.24,311.154 419.171,311.259 435.76,322.296 					"/>
				</g>
				<g>
					<polygon fill="#470303" points="434.411,322.296 417.708,310.372 417.635,310.474 434.194,322.296 					"/>
				</g>
				<g>
					
						<rect x="270.404" y="270.458" transform="matrix(0.9338 0.3577 -0.3577 0.9338 115.4908 -83.2481)" fill="#470303" width="24.682" height="0.125"/>
				</g>
				<g>
					
						<rect x="302.005" y="293.472" transform="matrix(0.8975 0.4411 -0.4411 0.8975 163.661 -116.9393)" fill="#470303" width="62.68" height="0.126"/>
				</g>
				<g>
					
						<rect x="264.88" y="287.013" transform="matrix(0.9103 0.414 -0.414 0.9103 147.2267 -105.1508)" fill="#470303" width="102.632" height="0.125"/>
				</g>
				<g>
					
						<rect x="279.438" y="290.424" transform="matrix(0.9123 0.4095 -0.4095 0.9123 147.2739 -106.8226)" fill="#470303" width="87.278" height="0.125"/>
				</g>
				<g>
					
						<rect x="279.268" y="287.248" transform="matrix(0.8858 0.464 -0.464 0.8858 170.2786 -117.4081)" fill="#470303" width="88.901" height="0.125"/>
				</g>
				<g>
					
						<rect x="278.697" y="290.021" transform="matrix(0.9104 0.4138 -0.4138 0.9104 148.9611 -107.5613)" fill="#470303" width="88.158" height="0.125"/>
				</g>
				<g>
					
						<rect x="341.84" y="251.403" transform="matrix(0.7187 -0.6953 0.6953 0.7187 -100.1798 317.1521)" fill="#470303" width="0.125" height="61.986"/>
				</g>
				<g>
					
						<rect x="305.071" y="294.978" transform="matrix(0.8975 0.4411 -0.4411 0.8975 164.6342 -118.1348)" fill="#470303" width="62.68" height="0.126"/>
				</g>
				<g>
					
						<rect x="266.435" y="287.72" transform="matrix(0.9103 0.414 -0.414 0.9103 147.6563 -105.73)" fill="#470303" width="102.631" height="0.125"/>
				</g>
				<g>
					
						<rect x="280.997" y="291.123" transform="matrix(0.9123 0.4095 -0.4095 0.9123 147.6928 -107.3977)" fill="#470303" width="87.278" height="0.126"/>
				</g>
				<g>
					
						<rect x="280.782" y="288.04" transform="matrix(0.8858 0.464 -0.464 0.8858 170.815 -118.0186)" fill="#470303" width="88.901" height="0.126"/>
				</g>
				<g>
					
						<rect x="280.253" y="290.727" transform="matrix(0.9104 0.4138 -0.4138 0.9104 149.3929 -108.1417)" fill="#470303" width="88.158" height="0.125"/>
				</g>
				<g>
					
						<rect x="344.209" y="253.865" transform="matrix(0.7187 -0.6953 0.6953 0.7187 -101.226 319.4918)" fill="#470303" width="0.125" height="61.987"/>
				</g>
				<g>
					<polygon fill="#470303" points="424.18,322.296 322.845,259.736 322.779,259.844 423.94,322.296 					"/>
				</g>
				<g>
					<polygon fill="#470303" points="424.18,322.296 321.391,258.839 321.325,258.946 423.94,322.296 					"/>
				</g>
				<g>
					<polygon fill="#470303" points="-20.593,281.199 -20.593,281.34 61.88,322.296 62.163,322.296 					"/>
				</g>
				<g>
					<polygon fill="#470303" points="-20.593,281.199 -20.593,281.34 61.88,322.296 62.163,322.296 					"/>
				</g>
				<g>
					<polygon fill="#470303" points="-20.593,274.063 -20.593,274.198 93.664,322.296 93.987,322.296 					"/>
				</g>
				<g>
					<polygon fill="#470303" points="-20.593,274.063 -20.593,274.198 93.664,322.296 93.987,322.296 					"/>
				</g>
				<g>
					<polygon fill="#470303" points="396.307,322.296 323.531,261.715 323.451,261.812 396.111,322.296 					"/>
				</g>
				<g>
					<polygon fill="#470303" points="396.308,322.296 320.906,259.528 320.826,259.625 396.111,322.296 					"/>
				</g>
				<g>
					
						<rect x="240.854" y="47.349" transform="matrix(0.7891 0.6143 -0.6143 0.7891 90.7038 -169.3413)" fill="#470303" width="102.182" height="0.125"/>
				</g>
				<g>
					
						<rect x="243.331" y="64.052" transform="matrix(0.934 0.3572 -0.3572 0.934 48.1254 -132.3196)" fill="#470303" width="277.834" height="0.125"/>
				</g>
				<g>
					<polygon fill="#470303" points="548.604,129.091 526.264,119.47 526.215,119.584 548.604,129.227 					"/>
				</g>
				<g>
					<polygon fill="#470303" points="136.498,-13.326 331.369,80.249 331.423,80.135 136.788,-13.326 					"/>
				</g>
				<g>
					<polygon fill="#470303" points="163.474,-13.326 511.937,113.908 511.979,113.791 163.837,-13.326 					"/>
				</g>
				<g>
					
						<rect x="242.202" y="48.398" transform="matrix(0.7891 0.6143 -0.6143 0.7891 91.6343 -169.9493)" fill="#470303" width="102.182" height="0.125"/>
				</g>
				<g>
					<polygon fill="#470303" points="136.498,-13.326 332.909,80.988 332.963,80.875 136.788,-13.326 					"/>
				</g>
				<g>
					<polygon fill="#470303" points="548.604,199.972 343.586,86.363 343.525,86.472 548.604,200.114 					"/>
				</g>
				<g>
					
						<rect x="244.926" y="64.662" transform="matrix(0.934 0.3572 -0.3572 0.934 48.4494 -132.8505)" fill="#470303" width="277.835" height="0.125"/>
				</g>
				<g>
					<polygon fill="#470303" points="548.604,129.091 524.695,118.794 524.646,118.909 548.604,129.227 					"/>
				</g>
				<g>
					<polygon fill="#470303" points="548.604,107.076 524.858,114.617 524.896,114.736 548.604,107.207 					"/>
				</g>
				<g>
					<polygon fill="#470303" points="184.978,-13.326 513.583,114.379 513.629,114.262 185.324,-13.326 					"/>
				</g>
				<g>
					<polygon fill="#470303" points="78.283,-13.326 78,-13.326 548.604,220.942 548.604,220.803 					"/>
				</g>
				<g>
					<polygon fill="#470303" points="548.604,130.197 526.167,119.689 526.114,119.803 548.604,130.336 					"/>
				</g>
				<g>
					<polygon fill="#470303" points="548.604,199.972 345.08,87.191 345.02,87.3 548.604,200.114 					"/>
				</g>
				<g>
					<polygon fill="#470303" points="78.283,-13.326 78,-13.326 548.604,220.942 548.604,220.802 					"/>
				</g>
				<g>
					<polygon fill="#470303" points="181.344,-13.326 239.734,9.602 239.78,9.485 181.687,-13.326 					"/>
				</g>
				<g>
					<polygon fill="#470303" points="184.978,-13.326 510.398,113.142 510.443,113.024 185.325,-13.326 					"/>
				</g>
				<g>
					<polygon fill="#470303" points="548.604,203.963 516.757,158.555 516.654,158.627 548.604,204.181 					"/>
				</g>
				<g>
					<polygon fill="#470303" points="548.604,203.963 515.775,157.156 515.673,157.229 548.604,204.181 					"/>
				</g>
				<g>
					<line fill="#470303" x1="548.604" y1="228.265" x2="548.604" y2="228.101"/>
					<line fill="#470303" x1="437.301" y1="322.296" x2="437.495" y2="322.296"/>
				</g>
				<g>
					<line fill="#470303" x1="548.604" y1="228.265" x2="548.604" y2="228.101"/>
					<line fill="#470303" x1="437.301" y1="322.296" x2="437.495" y2="322.296"/>
				</g>
				<g>
					<polygon fill="#470303" points="548.604,261.213 485.574,322.296 485.753,322.296 548.604,261.387 					"/>
				</g>
				<g>
					<polygon fill="#470303" points="548.604,261.213 485.574,322.296 485.754,322.296 548.604,261.387 					"/>
				</g>
				<g>
					<polygon fill="#470303" points="-20.593,278.055 -20.593,278.182 210.477,322.296 211.145,322.296 					"/>
				</g>
				<g>
					
						<rect x="352.747" y="33.372" transform="matrix(0.9894 0.1452 -0.1452 0.9894 8.6697 -51.9477)" fill="#470303" width="15.12" height="0.126"/>
				</g>
				<g>
					
						<rect x="333.337" y="91.316" transform="matrix(0.8075 0.5899 -0.5899 0.8075 136.492 -235.4327)" fill="#470303" width="191.15" height="0.126"/>
				</g>
				<g>
					
						<rect x="341.525" y="29.182" transform="matrix(0.867 0.4982 -0.4982 0.867 60.1815 -167.0271)" fill="#470303" width="3.025" height="0.125"/>
				</g>
				<g>
					
						<rect x="418.815" y="118.321" transform="matrix(0.8104 0.5858 -0.5858 0.8104 160.393 -258.9025)" fill="#470303" width="122.86" height="0.125"/>
				</g>
				<g>
					
						<rect x="430.107" y="84.575" transform="matrix(0.8745 0.4851 -0.4851 0.8745 95.7856 -200.8582)" fill="#470303" width="11.724" height="0.125"/>
				</g>
				<g>
					<polygon fill="#470303" points="548.604,126.102 431.218,80.98 431.173,81.097 548.604,126.236 					"/>
				</g>
				<g>
					
						<rect x="363.557" y="61.301" transform="matrix(0.8755 0.4832 -0.4832 0.8755 78.6943 -182.6879)" fill="#470303" width="60.596" height="0.125"/>
				</g>
				<g>
					
						<rect x="418.343" y="114.981" transform="matrix(0.7631 0.6463 -0.6463 0.7631 185.2819 -275.3938)" fill="#470303" width="99.916" height="0.125"/>
				</g>
				<g>
					
						<rect x="420.2" y="119.321" transform="matrix(0.8104 0.5858 -0.5858 0.8104 161.2401 -259.5225)" fill="#470303" width="122.861" height="0.126"/>
				</g>
				<g>
					
						<rect x="482.844" y="144.128" transform="matrix(0.8848 0.466 -0.466 0.8848 125.7532 -220.2777)" fill="#470303" width="51.068" height="0.126"/>
				</g>
				<g>
					
						<rect x="522.86" y="156.201" transform="matrix(0.9644 0.2646 -0.2646 0.9644 60.1264 -133.8155)" fill="#470303" width="7.772" height="0.126"/>
				</g>
				<g>
					
						<rect x="354.215" y="56.857" transform="matrix(0.9244 0.3815 -0.3815 0.9244 48.6018 -131.3022)" fill="#470303" width="2.446" height="0.126"/>
				</g>
				<g>
					
						<rect x="355.068" y="105.471" transform="matrix(0.8511 0.5249 -0.5249 0.8511 120.3667 -213.4036)" fill="#470303" width="162.796" height="0.125"/>
				</g>
				<g>
					
						<rect x="529.853" y="156.338" transform="matrix(0.9179 -0.3967 0.3967 0.9179 -33.1083 226.0799)" fill="#470303" width="0.126" height="73.46"/>
				</g>
				<g>
					<polygon fill="#470303" points="548.604,206.798 517.546,160.086 517.441,160.156 548.604,207.024 					"/>
				</g>
				<g>
					
						<rect x="479.821" y="142.536" transform="matrix(0.8848 0.4659 -0.4659 0.8848 124.6537 -219.0427)" fill="#470303" width="51.068" height="0.126"/>
				</g>
				<g>
					
						<rect x="479.761" y="139.553" transform="matrix(0.8191 0.5736 -0.5736 0.8191 169.4586 -258.2069)" fill="#470303" width="28.841" height="0.125"/>
				</g>
				<g>
					
						<rect x="353.106" y="58.715" transform="matrix(0.7939 0.608 -0.608 0.7939 108.7117 -203.1732)" fill="#470303" width="1.915" height="0.125"/>
				</g>
				<g>
					
						<rect x="353.571" y="107.153" transform="matrix(0.8633 0.5048 -0.5048 0.8633 113.632 -205.0132)" fill="#470303" width="163.246" height="0.125"/>
				</g>
				<g>
					<polygon fill="#470303" points="548.604,134.328 519.159,148.842 519.215,148.955 548.604,134.468 					"/>
				</g>
				<g>
					<polygon fill="#470303" points="548.604,192.364 519.785,160.491 519.692,160.575 548.604,192.551 					"/>
				</g>
				<g>
					
						<rect x="431.601" y="85.404" transform="matrix(0.8744 0.4851 -0.4851 0.8744 96.3867 -201.4925)" fill="#470303" width="11.723" height="0.125"/>
				</g>
				<g>
					
						<rect x="441.858" y="121.103" transform="matrix(0.7259 0.6878 -0.6878 0.7259 214.7353 -296.5336)" fill="#470303" width="75.152" height="0.125"/>
				</g>
				<g>
					<polygon fill="#470303" points="548.604,126.102 432.813,81.593 432.768,81.71 548.604,126.236 					"/>
				</g>
				<g>
					<polygon fill="#470303" points="548.604,123.639 429.769,67.821 429.716,67.935 548.604,123.777 					"/>
				</g>
				<g>
					<polygon fill="#470303" points="548.604,143.848 523.097,149.737 523.125,149.859 548.604,143.976 					"/>
				</g>
				<g>
					<polygon fill="#470303" points="548.604,123.639 428.223,67.095 428.169,67.208 548.604,123.778 					"/>
				</g>
				<g>
					
						<rect x="378.88" y="50.512" transform="matrix(0.8533 0.5214 -0.5214 0.8533 85.0282 -201.0591)" fill="#470303" width="41.874" height="0.125"/>
				</g>
				<g>
					
						<rect x="411.109" y="107.793" transform="matrix(0.7143 0.6998 -0.6998 0.7143 208.864 -295.948)" fill="#470303" width="111.636" height="0.125"/>
				</g>
				<g>
					
						<rect x="362.061" y="60.475" transform="matrix(0.8755 0.4832 -0.4832 0.8755 78.1056 -182.0633)" fill="#470303" width="60.597" height="0.125"/>
				</g>
				<g>
					
						<rect x="349.104" y="97.09" transform="matrix(0.8114 0.5846 -0.5846 0.8114 138.9935 -236.393)" fill="#470303" width="173.296" height="0.126"/>
				</g>
				<g>
					
						<rect x="342.445" y="35.03" transform="matrix(0.8058 0.5922 -0.5922 0.8058 88.715 -200.3457)" fill="#470303" width="14.769" height="0.126"/>
				</g>
				<g>
					
						<rect x="352.636" y="56.205" transform="matrix(0.9244 0.3815 -0.3815 0.9244 48.2336 -130.7489)" fill="#470303" width="2.446" height="0.125"/>
				</g>
				<g>
					
						<rect x="351.751" y="57.677" transform="matrix(0.7937 0.6083 -0.6083 0.7937 107.8815 -202.6387)" fill="#470303" width="1.914" height="0.125"/>
				</g>
				<g>
					
						<rect x="339.654" y="102.408" transform="matrix(0.8581 0.5134 -0.5134 0.8581 113.4761 -205.732)" fill="#470303" width="178.718" height="0.126"/>
				</g>
				<g>
					
						<rect x="354.437" y="33.62" transform="matrix(0.9894 0.1452 -0.1452 0.9894 8.7271 -52.205)" fill="#470303" width="15.119" height="0.125"/>
				</g>
				<g>
					<polygon fill="#470303" points="548.604,122.682 380.762,38.279 380.705,38.391 548.604,122.822 					"/>
				</g>
				<g>
					
						<rect x="377.422" y="49.621" transform="matrix(0.8533 0.5214 -0.5214 0.8533 84.3522 -200.4327)" fill="#470303" width="41.874" height="0.125"/>
				</g>
				<g>
					
						<rect x="360.097" y="93.356" transform="matrix(0.7612 0.6486 -0.6486 0.7612 166.44 -265.126)" fill="#470303" width="166.189" height="0.125"/>
				</g>
				<g>
					
						<rect x="344.76" y="31.054" transform="matrix(0.9698 0.2438 -0.2438 0.9698 18.3753 -86.2038)" fill="#470303" width="25.214" height="0.125"/>
				</g>
				<g>
					
						<rect x="300.136" y="11.29" transform="matrix(0.8358 0.5491 -0.5491 0.8358 61.8034 -183.9388)" fill="#470303" width="76.543" height="0.125"/>
				</g>
				<g>
					
						<rect x="334.716" y="92.324" transform="matrix(0.8075 0.5899 -0.5899 0.8075 137.3521 -236.0521)" fill="#470303" width="191.15" height="0.126"/>
				</g>
				<g>
					
						<rect x="419.647" y="116.084" transform="matrix(0.7631 0.6463 -0.6463 0.7631 186.3 -275.9721)" fill="#470303" width="99.916" height="0.126"/>
				</g>
				<g>
					
						<rect x="517.857" y="155.297" transform="matrix(0.9643 0.2646 -0.2646 0.9643 59.7741 -132.983)" fill="#470303" width="11.189" height="0.126"/>
				</g>
				<g>
					
						<rect x="356.522" y="106.368" transform="matrix(0.8511 0.5249 -0.5249 0.8511 121.0529 -214.0327)" fill="#470303" width="162.796" height="0.126"/>
				</g>
				<g>
					
						<rect x="529.175" y="154.769" transform="matrix(0.9179 -0.3967 0.3967 0.9179 -32.542 225.6822)" fill="#470303" width="0.126" height="73.461"/>
				</g>
				<g>
					<polygon fill="#470303" points="548.604,206.798 515.653,157.241 515.549,157.311 548.604,207.024 					"/>
				</g>
				<g>
					
						<rect x="481.16" y="140.533" transform="matrix(0.8191 0.5736 -0.5736 0.8191 170.2739 -258.8323)" fill="#470303" width="28.841" height="0.125"/>
				</g>
				<g>
					
						<rect x="355.045" y="108.015" transform="matrix(0.8633 0.5048 -0.5048 0.8633 114.2681 -205.6389)" fill="#470303" width="163.246" height="0.125"/>
				</g>
				<g>
					<polygon fill="#470303" points="548.604,134.328 517.626,149.597 517.682,149.71 548.604,134.468 					"/>
				</g>
				<g>
					<polygon fill="#470303" points="548.604,192.364 516.348,156.689 516.255,156.774 548.604,192.551 					"/>
				</g>
				<g>
					
						<rect x="443.099" y="122.278" transform="matrix(0.7259 0.6878 -0.6878 0.7259 215.8831 -297.0641)" fill="#470303" width="75.151" height="0.126"/>
				</g>
				<g>
					<polygon fill="#470303" points="548.604,143.848 518.103,150.891 518.131,151.013 548.604,143.976 					"/>
				</g>
				<g>
					
						<rect x="412.33" y="108.989" transform="matrix(0.7143 0.6998 -0.6998 0.7143 210.0494 -296.4607)" fill="#470303" width="111.636" height="0.125"/>
				</g>
				<g>
					
						<rect x="350.49" y="98.088" transform="matrix(0.8114 0.5846 -0.5846 0.8114 139.8385 -237.0148)" fill="#470303" width="173.296" height="0.126"/>
				</g>
				<g>
					
						<rect x="341.12" y="103.285" transform="matrix(0.8581 0.5134 -0.5134 0.8581 114.1352 -206.3611)" fill="#470303" width="178.717" height="0.125"/>
				</g>
				<g>
					
						<rect x="361.397" y="94.464" transform="matrix(0.7612 0.6486 -0.6486 0.7612 167.4703 -265.7055)" fill="#470303" width="166.189" height="0.125"/>
				</g>
				<g>
					
						<rect x="324.815" y="89.67" transform="matrix(0.8106 0.5856 -0.5856 0.8106 133.1571 -232.2701)" fill="#470303" width="201.731" height="0.126"/>
				</g>
				<g>
					
						<rect x="340.045" y="28.331" transform="matrix(0.867 0.4984 -0.4984 0.867 59.5878 -166.4422)" fill="#470303" width="3.026" height="0.125"/>
				</g>
				<g>
					
						<rect x="341.069" y="34.019" transform="matrix(0.8058 0.5922 -0.5922 0.8058 87.8484 -199.7271)" fill="#470303" width="14.769" height="0.125"/>
				</g>
				<g>
					
						<rect x="343.102" y="30.637" transform="matrix(0.9698 0.2438 -0.2438 0.9698 18.2237 -85.8122)" fill="#470303" width="25.214" height="0.125"/>
				</g>
				<g>
					
						<rect x="323.43" y="88.67" transform="matrix(0.8106 0.5856 -0.5856 0.8106 132.3107 -231.6501)" fill="#470303" width="201.73" height="0.125"/>
				</g>
				<g>
					
						<rect x="298.709" y="10.352" transform="matrix(0.8358 0.5491 -0.5491 0.8358 61.0542 -183.3088)" fill="#470303" width="76.543" height="0.125"/>
				</g>
				<g>
					<polygon fill="#470303" points="548.604,196.892 510.93,173.224 510.864,173.33 548.604,197.04 					"/>
				</g>
				<g>
					
						<rect x="507.816" y="150.351" transform="matrix(0.9876 0.1568 -0.1568 0.9876 30.9415 -77.6737)" fill="#470303" width="0.125" height="13.928"/>
				</g>
				<g>
					<polygon fill="#470303" points="548.604,282.74 530.734,292.069 530.793,292.181 548.604,282.881 					"/>
				</g>
				<g>
					<polygon fill="#470303" points="548.604,282.74 532.248,291.279 532.307,291.39 548.604,282.881 					"/>
				</g>
				<g>
					<polygon fill="#470303" points="76.535,322.296 38.765,311.259 38.73,311.38 76.087,322.296 					"/>
				</g>
				<g>
					<polygon fill="#470303" points="-20.593,295.762 -20.593,295.899 38.415,322.296 38.722,322.296 					"/>
				</g>
				<g>
					<polygon fill="#470303" points="56.688,322.296 36.471,312.508 36.417,312.621 56.4,322.296 					"/>
				</g>
				<g>
					<polygon fill="#470303" points="-20.593,292.047 -20.593,292.18 19.134,305.364 19.173,305.244 					"/>
				</g>
				<g>
					<polygon fill="#470303" points="-20.593,294.073 -20.593,294.203 19.047,305.652 19.082,305.532 					"/>
				</g>
				<g>
					<polygon fill="#470303" points="-20.593,290.056 -20.593,290.189 19.228,305.091 19.272,304.973 					"/>
				</g>
				<g>
					<polygon fill="#470303" points="-20.593,291.496 -20.593,291.628 19.159,305.287 19.2,305.169 					"/>
				</g>
				<g>
					<polygon fill="#470303" points="-20.593,290.826 -20.593,290.959 19.19,305.194 19.233,305.076 					"/>
				</g>
				<g>
					<polygon fill="#470303" points="-20.593,290.442 -20.593,290.575 19.209,305.143 19.252,305.024 					"/>
				</g>
				<g>
					<polygon fill="#470303" points="68.168,322.296 35.336,310.777 35.295,310.896 67.788,322.296 					"/>
				</g>
				<g>
					<polygon fill="#470303" points="-20.593,291.201 -20.593,291.335 19.173,305.246 19.214,305.128 					"/>
				</g>
				<g>
					<polygon fill="#470303" points="-20.593,291.641 -20.593,291.772 19.152,305.308 19.193,305.188 					"/>
				</g>
				<g>
					<polygon fill="#470303" points="-20.593,295.762 -20.593,295.899 38.415,322.296 38.722,322.296 					"/>
				</g>
				<g>
					<polygon fill="#470303" points="-20.593,288.665 -20.593,288.8 19.298,304.906 19.345,304.79 					"/>
				</g>
				<g>
					<polygon fill="#470303" points="-20.593,290.463 -20.593,290.597 19.208,305.146 19.251,305.028 					"/>
				</g>
				<g>
					<polygon fill="#470303" points="69.059,322.296 35.356,310.719 35.315,310.837 68.674,322.296 					"/>
				</g>
				<g>
					<polygon fill="#470303" points="-20.593,288.978 -20.593,289.113 19.282,304.947 19.328,304.83 					"/>
				</g>
				<g>
					<polygon fill="#470303" points="-20.593,295.111 -20.593,295.241 19.006,305.805 19.038,305.684 					"/>
				</g>
				<g>
					<polygon fill="#470303" points="-20.593,291.239 -20.593,291.373 19.171,305.252 19.212,305.133 					"/>
				</g>
				<g>
					<polygon fill="#470303" points="76.535,322.296 32.206,309.343 32.171,309.463 76.087,322.296 					"/>
				</g>
				<g>
					<polygon fill="#470303" points="56.687,322.296 31.858,310.275 31.804,310.388 56.4,322.296 					"/>
				</g>
				<g>
					<polygon fill="#470303" points="-20.593,292.065 -20.593,292.198 20.754,305.904 20.794,305.785 					"/>
				</g>
				<g>
					<polygon fill="#470303" points="-20.593,292.047 -20.593,292.18 20.755,305.902 20.794,305.783 					"/>
				</g>
				<g>
					<polygon fill="#470303" points="-20.593,294.073 -20.593,294.203 20.688,306.127 20.723,306.007 					"/>
				</g>
				<g>
					<polygon fill="#470303" points="-20.593,290.056 -20.593,290.189 20.828,305.689 20.872,305.572 					"/>
				</g>
				<g>
					<polygon fill="#470303" points="-20.593,291.495 -20.593,291.628 20.774,305.842 20.815,305.724 					"/>
				</g>
				<g>
					<polygon fill="#470303" points="-20.593,290.826 -20.593,290.959 20.799,305.771 20.841,305.652 					"/>
				</g>
				<g>
					<polygon fill="#470303" points="-20.593,290.442 -20.593,290.575 20.813,305.729 20.856,305.612 					"/>
				</g>
				<g>
					<polygon fill="#470303" points="68.168,322.296 32.112,309.646 32.071,309.765 67.788,322.296 					"/>
				</g>
				<g>
					<polygon fill="#470303" points="-20.593,291.202 -20.593,291.335 20.785,305.812 20.827,305.692 					"/>
				</g>
				<g>
					<polygon fill="#470303" points="-20.593,291.641 -20.593,291.772 20.77,305.857 20.81,305.739 					"/>
				</g>
				<g>
					<polygon fill="#470303" points="-20.593,288.665 -20.593,288.8 20.882,305.545 20.929,305.43 					"/>
				</g>
				<g>
					<polygon fill="#470303" points="-20.593,290.464 -20.593,290.597 20.813,305.732 20.855,305.614 					"/>
				</g>
				<g>
					<polygon fill="#470303" points="69.059,322.296 32.125,309.609 32.084,309.728 68.674,322.296 					"/>
				</g>
				<g>
					<polygon fill="#470303" points="-20.593,288.979 -20.593,289.113 20.87,305.578 20.916,305.461 					"/>
				</g>
				<g>
					<polygon fill="#470303" points="-20.593,295.111 -20.593,295.24 20.657,306.245 20.689,306.124 					"/>
				</g>
				<g>
					<polygon fill="#470303" points="-20.593,296.176 -20.593,296.306 20.627,306.369 20.656,306.247 					"/>
				</g>
				<g>
					<polygon fill="#470303" points="-20.593,296.177 -20.593,296.306 18.966,305.964 18.996,305.842 					"/>
				</g>
				<g>
					<polygon fill="#470303" points="417.348,322.296 379.077,313.538 379.049,313.66 416.785,322.296 					"/>
				</g>
				<g>
					<polygon fill="#470303" points="366.923,322.296 368.34,317.274 368.219,317.241 366.793,322.296 					"/>
				</g>
				<g>
					<polygon fill="#470303" points="417.346,322.296 375.746,312.776 375.718,312.898 416.783,322.296 					"/>
				</g>
				<g>
					<polygon fill="#470303" points="370.586,322.296 370.309,317.469 370.184,317.477 370.461,322.296 					"/>
				</g>
				<g>
					<polygon fill="#470303" points="370.586,322.296 370.407,319.174 370.282,319.182 370.461,322.296 					"/>
				</g>
				<g>
					
						<rect x="181.15" y="158.876" transform="matrix(0.8811 0.4729 -0.4729 0.8811 98.6931 -74.726)" fill="#470303" width="33.656" height="0.125"/>
				</g>
				<g>
					
						<rect x="183.599" y="168.812" transform="matrix(0.8788 0.4772 -0.4772 0.8788 107.2614 -84.5284)" fill="#470303" width="72.844" height="0.125"/>
				</g>
				<g>
					<polygon fill="#470303" points="548.604,131.881 524.501,119.212 524.442,119.323 548.604,132.023 					"/>
				</g>
				<g>
					<polygon fill="#470303" points="548.604,131.881 526.014,120.007 525.955,120.118 548.604,132.023 					"/>
				</g>
				<g>
					
						<rect x="374.434" y="309" transform="matrix(0.8832 0.469 -0.469 0.8832 188.9873 -139.4545)" fill="#470303" width="0.125" height="1.459"/>
				</g>
				<g>
					<polygon fill="#470303" points="418.695,322.296 382.526,307.331 382.479,307.447 418.367,322.296 					"/>
				</g>
				<g>
					
						<rect x="380.892" y="296.957" transform="matrix(0.88 0.475 -0.475 0.88 187.1352 -145.2333)" fill="#470303" width="0.125" height="1.458"/>
				</g>
				<g>
					<polygon fill="#470303" points="424.362,322.296 383.979,304.648 383.928,304.764 424.048,322.296 					"/>
				</g>
				<g>
					<polygon fill="#470303" points="418.695,322.296 384.105,307.984 384.057,308.101 418.366,322.296 					"/>
				</g>
				<g>
					<polygon fill="#470303" points="424.362,322.296 385.544,305.333 385.493,305.448 424.048,322.296 					"/>
				</g>
				<g>
					<polygon fill="#470303" points="141.304,322.296 88.21,280.329 88.132,280.428 141.101,322.296 					"/>
				</g>
				<g>
					<polygon fill="#470303" points="75.08,322.296 -19.769,165.791 -19.877,165.855 74.933,322.296 					"/>
				</g>
				<g>
					
						<rect x="69.65" y="235.987" transform="matrix(0.8682 -0.4961 0.4961 0.8682 -116.6295 67.999)" fill="#470303" width="0.126" height="35.201"/>
				</g>
				<g>
					<polygon fill="#470303" points="-20.593,78.617 -20.593,78.894 55.352,227.754 55.463,227.697 					"/>
				</g>
				<g>
					<polygon fill="#470303" points="75.08,322.296 -18.883,167.252 -18.991,167.316 74.933,322.296 					"/>
				</g>
				<g>
					<polygon fill="#470303" points="-20.593,187.448 -20.593,187.613 76.264,270.655 76.345,270.561 					"/>
				</g>
				<g>
					<polygon fill="#470303" points="172.484,322.296 88.996,279.089 88.939,279.2 172.212,322.296 					"/>
				</g>
				<g>
					<polygon fill="#470303" points="141.303,322.296 86.87,279.27 86.792,279.368 141.1,322.296 					"/>
				</g>
				<g>
					
						<rect x="70.489" y="237.475" transform="matrix(0.8673 -0.4978 0.4978 0.8673 -117.6167 68.9743)" fill="#470303" width="0.126" height="35.202"/>
				</g>
				<g>
					<polygon fill="#470303" points="-20.593,187.448 -20.593,187.613 77.561,271.768 77.642,271.672 					"/>
				</g>
				<g>
					<polygon fill="#470303" points="172.484,322.296 87.479,278.304 87.422,278.415 172.212,322.296 					"/>
				</g>
				<g>
					<polygon fill="#470303" points="-20.593,78.617 -20.593,78.893 54.575,226.232 54.687,226.176 					"/>
				</g>
				<g>
					<polygon fill="#470303" points="157.474,322.296 63.883,238.145 63.799,238.238 157.286,322.296 					"/>
				</g>
				<g>
					<polygon fill="#470303" points="157.473,322.296 62.612,237.003 62.529,237.096 157.286,322.296 					"/>
				</g>
				<g>
					<polygon fill="#470303" points="132.279,322.296 61.992,237.612 61.895,237.692 132.116,322.296 					"/>
				</g>
				<g>
					<polygon fill="#470303" points="132.279,322.296 63.083,238.927 62.986,239.007 132.116,322.296 					"/>
				</g>
				<g>
					<polygon fill="#470303" points="296.868,322.296 314.172,263.147 314.052,263.112 296.737,322.296 					"/>
				</g>
				<g>
					<polygon fill="#470303" points="296.868,322.296 314.651,261.508 314.531,261.473 296.737,322.296 					"/>
				</g>
				<g>
					<polygon fill="#470303" points="548.604,152.323 541.525,156.039 541.584,156.15 548.604,152.465 					"/>
				</g>
				<g>
					<polygon fill="#470303" points="548.604,151.998 542.963,155.107 543.022,155.218 548.604,152.141 					"/>
				</g>
				<g>
					<polygon fill="#470303" points="548.604,152.982 544.731,154.81 544.785,154.923 548.604,153.121 					"/>
				</g>
				<g>
					<polygon fill="#470303" points="548.604,136.788 517.769,149.899 517.818,150.015 548.604,136.924 					"/>
				</g>
				<g>
					<polygon fill="#470303" points="548.604,290.72 544.304,287.143 544.224,287.238 548.604,290.883 					"/>
				</g>
				<g>
					<polygon fill="#470303" points="548.604,285.382 545.505,284.661 545.477,284.783 548.604,285.511 					"/>
				</g>
				<g>
					<polygon fill="#470303" points="548.604,284.767 545.578,284.271 545.558,284.395 548.604,284.894 					"/>
				</g>
				<g>
					<polygon fill="#470303" points="548.604,287.828 543.458,283.244 543.374,283.337 548.604,287.996 					"/>
				</g>
				<g>
					<polygon fill="#470303" points="548.604,281.89 544.735,280.831 544.702,280.952 548.604,282.021 					"/>
				</g>
				<g>
					<polygon fill="#470303" points="548.604,281.325 544.81,280.509 544.784,280.632 548.604,281.453 					"/>
				</g>
				<g>
					<polygon fill="#470303" points="548.604,290.719 545.617,288.234 545.537,288.331 548.604,290.883 					"/>
				</g>
				<g>
					<polygon fill="#470303" points="548.604,287.829 544.733,284.381 544.649,284.474 548.604,287.996 					"/>
				</g>
				<g>
					<polygon fill="#470303" points="548.604,292.944 541.632,287.462 541.555,287.56 548.604,293.104 					"/>
				</g>
				<g>
					<polygon fill="#470303" points="548.604,292.944 540.289,286.405 540.212,286.504 548.604,293.104 					"/>
				</g>
				<g>
					<polygon fill="#470303" points="548.604,285.686 541.393,284.033 541.364,284.155 548.604,285.814 					"/>
				</g>
				<g>
					<polygon fill="#470303" points="548.604,284.821 541.462,283.658 541.442,283.781 548.604,284.948 					"/>
				</g>
				<g>
					<polygon fill="#470303" points="548.604,270.568 538.006,266.261 537.959,266.377 548.604,270.703 					"/>
				</g>
				<g>
					<polygon fill="#470303" points="548.604,285.686 543.058,284.415 543.029,284.537 548.604,285.814 					"/>
				</g>
				<g>
					<polygon fill="#470303" points="548.604,270.568 539.588,266.904 539.541,267.021 548.604,270.704 					"/>
				</g>
				<g>
					<polygon fill="#470303" points="548.604,296.19 535.693,289.069 535.633,289.18 548.604,296.333 					"/>
				</g>
				<g>
					<polygon fill="#470303" points="548.604,267.41 523.76,256.909 523.71,257.024 548.604,267.546 					"/>
				</g>
				<g>
					<polygon fill="#470303" points="548.604,284.821 543.148,283.933 543.128,284.056 548.604,284.948 					"/>
				</g>
				<g>
					<polygon fill="#470303" points="548.604,267.41 525.333,257.574 525.284,257.689 548.604,267.546 					"/>
				</g>
				<g>
					<polygon fill="#470303" points="548.604,268.829 525.195,259.431 525.147,259.547 548.604,268.964 					"/>
				</g>
				<g>
					<polygon fill="#470303" points="548.604,287.706 536.571,286.264 536.557,286.389 548.604,287.832 					"/>
				</g>
				<g>
					<polygon fill="#470303" points="548.604,268.829 523.609,258.794 523.563,258.91 548.604,268.964 					"/>
				</g>
				<g>
					<polygon fill="#470303" points="548.604,296.19 534.197,288.244 534.137,288.354 548.604,296.334 					"/>
				</g>
				<g>
					<polygon fill="#470303" points="548.604,287.706 534.875,286.062 534.86,286.186 548.604,287.832 					"/>
				</g>
				<g>
					<polygon fill="#470303" points="548.604,272.225 544.869,270.779 544.824,270.896 548.604,272.358 					"/>
				</g>
				<g>
					<polygon fill="#470303" points="548.604,271.929 544.926,270.622 544.884,270.74 548.604,272.062 					"/>
				</g>
				<g>
					<polygon fill="#470303" points="430.069,322.296 328.651,279.26 328.603,279.375 429.748,322.296 					"/>
				</g>
				<g>
					
						<rect x="235.524" y="256.566" transform="matrix(0.9155 0.4024 -0.4024 0.9155 126.647 -89.667)" fill="#470303" width="82.473" height="0.126"/>
				</g>
				<g>
					<polygon fill="#470303" points="430.069,322.296 327.078,278.592 327.029,278.708 429.748,322.296 					"/>
				</g>
				<g>
					
						<rect x="237.088" y="257.253" transform="matrix(0.9155 0.4024 -0.4024 0.9155 127.0558 -90.238)" fill="#470303" width="82.473" height="0.126"/>
				</g>
				<g>
					
						<rect x="541.742" y="167.872" transform="matrix(0.9903 -0.1393 0.1393 0.9903 -22.1909 77.371)" fill="#470303" width="0.126" height="58.783"/>
				</g>
				<g>
					<polygon fill="#470303" points="548.604,283.342 540.932,322.296 541.061,322.296 548.604,283.994 					"/>
				</g>
				<g>
					<polygon fill="#470303" points="548.604,126.944 453.472,93.152 453.43,93.271 548.604,127.077 					"/>
				</g>
				<g>
					<polygon fill="#470303" points="548.604,152.322 543.037,155.245 543.097,155.356 548.604,152.465 					"/>
				</g>
				<g>
					<polygon fill="#470303" points="548.604,283.34 540.932,322.296 541.06,322.296 548.604,283.992 					"/>
				</g>
				<g>
					<polygon fill="#470303" points="548.604,126.944 455.081,93.724 455.039,93.842 548.604,127.077 					"/>
				</g>
				<g>
					<polygon fill="#470303" points="548.604,122.682 382.288,39.046 382.231,39.158 548.604,122.822 					"/>
				</g>
				<g>
					
						<rect x="125.47" y="215.482" transform="matrix(0.9212 0.3892 -0.3892 0.9212 101.312 -69.052)" fill="#470303" width="191.257" height="0.125"/>
				</g>
				<g>
					
						<rect x="121.746" y="174.666" transform="matrix(0.9394 0.3429 -0.3429 0.9394 67.426 -31.9266)" fill="#470303" width="4.52" height="0.125"/>
				</g>
				<g>
					<polygon fill="#470303" points="-20.593,108.78 -20.593,108.918 309.199,252.736 309.249,252.622 					"/>
				</g>
				<g>
					
						<rect x="157.747" y="172.322" transform="matrix(0.8585 0.5128 -0.5128 0.8585 111.0213 -56.4504)" fill="#470303" width="0.126" height="1.291"/>
				</g>
				<g>
					
						<rect x="68.959" y="145.564" transform="matrix(0.9261 0.3772 -0.3772 0.9261 60.1182 -15.7051)" fill="#470303" width="2.389" height="0.125"/>
				</g>
				<g>
					
						<rect x="70.643" y="148.83" transform="matrix(0.9165 0.4 -0.4 0.9165 66.0185 -18.5074)" fill="#470303" width="13.4" height="0.126"/>
				</g>
				<g>
					
						<rect x="71.117" y="146.786" transform="matrix(0.928 0.3726 -0.3726 0.928 59.9923 -16.7234)" fill="#470303" width="4.29" height="0.124"/>
				</g>
				<g>
					
						<rect x="59.843" y="199.375" transform="matrix(0.913 0.4079 -0.4079 0.913 97.8923 -60.2427)" fill="#470303" width="260.746" height="0.126"/>
				</g>
				<g>
					
						<rect x="60.015" y="142.449" transform="matrix(0.9175 0.3977 -0.3977 0.9175 61.8415 -13.1815)" fill="#470303" width="5.373" height="0.125"/>
				</g>
				<g>
					
						<rect x="69.835" y="151.881" transform="matrix(0.8997 0.4365 -0.4365 0.8997 74.5928 -20.7574)" fill="#470303" width="25.264" height="0.126"/>
				</g>
				<g>
					
						<rect x="69.211" y="154.89" transform="matrix(0.9046 0.4262 -0.4262 0.9046 74.5623 -23.3037)" fill="#470303" width="40.282" height="0.125"/>
				</g>
				<g>
					
						<rect x="138.384" y="218.026" transform="matrix(0.9209 0.3899 -0.3899 0.9209 103.0071 -71.3596)" fill="#470303" width="177.842" height="0.125"/>
				</g>
				<g>
					
						<rect x="105.871" y="171.283" transform="matrix(0.888 0.4598 -0.4598 0.888 92.339 -36.4893)" fill="#470303" width="30.437" height="0.125"/>
				</g>
				<g>
					
						<rect x="138.432" y="211.799" transform="matrix(0.894 0.4481 -0.4481 0.894 119.1677 -80.0138)" fill="#470303" width="180.534" height="0.126"/>
				</g>
				<g>
					
						<rect x="133.982" y="166.144" transform="matrix(0.9532 0.3024 -0.3024 0.9532 56.5565 -32.9388)" fill="#470303" width="1.376" height="0.125"/>
				</g>
				<g>
					
						<rect x="133.217" y="167.574" transform="matrix(0.8229 0.5683 -0.5683 0.8229 118.87 -46.0425)" fill="#470303" width="0.132" height="0.125"/>
				</g>
				<g>
					
						<rect x="70.541" y="146.209" transform="matrix(0.926 0.3776 -0.3776 0.926 60.5399 -16.2585)" fill="#470303" width="2.39" height="0.125"/>
				</g>
				<g>
					
						<rect x="70.427" y="146.743" transform="matrix(0.9313 0.3643 -0.3643 0.9313 58.4981 -16.4744)" fill="#470303" width="4.972" height="0.125"/>
				</g>
				<g>
					
						<rect x="70.701" y="201.502" transform="matrix(0.9125 0.4092 -0.4092 0.9125 99.587 -62.3236)" fill="#470303" width="249.476" height="0.126"/>
				</g>
				<g>
					
						<rect x="79.366" y="149.64" transform="matrix(0.9393 0.343 -0.343 0.9393 56.2329 -18.5673)" fill="#470303" width="2.491" height="0.125"/>
				</g>
				<g>
					
						<rect x="21.111" y="122.982" transform="matrix(0.8851 0.4654 -0.4654 0.8851 63.5298 -11.2251)" fill="#470303" width="66.773" height="0.126"/>
				</g>
				<g>
					
						<rect x="151.236" y="217.513" transform="matrix(0.9068 0.4215 -0.4215 0.9068 113.508 -78.4073)" fill="#470303" width="165.785" height="0.126"/>
				</g>
				<g>
					
						<rect x="83.421" y="198.51" transform="matrix(0.893 0.45 -0.45 0.893 111.0525 -70.0181)" fill="#470303" width="238.754" height="0.125"/>
				</g>
				<g>
					
						<rect x="72.209" y="149.514" transform="matrix(0.9165 0.4 -0.4 0.9165 66.4203 -19.0765)" fill="#470303" width="13.401" height="0.126"/>
				</g>
				<g>
					
						<rect x="85.78" y="204.788" transform="matrix(0.9126 0.4088 -0.4088 0.9126 101.4332 -64.9269)" fill="#470303" width="233.681" height="0.125"/>
				</g>
				<g>
					
						<rect x="78.998" y="150.922" transform="matrix(0.9161 0.4009 -0.4009 0.9161 67.4235 -20.2728)" fill="#470303" width="6.319" height="0.126"/>
				</g>
				<g>
					
						<rect x="136.303" y="213.475" transform="matrix(0.9037 0.4283 -0.4283 0.9037 113.3358 -76.7231)" fill="#470303" width="181.777" height="0.125"/>
				</g>
				<g>
					
						<rect x="72.702" y="147.422" transform="matrix(0.928 0.3726 -0.3726 0.928 60.3435 -17.2681)" fill="#470303" width="4.29" height="0.125"/>
				</g>
				<g>
					
						<rect x="83.154" y="151.721" transform="matrix(0.9313 0.3642 -0.3642 0.9313 61.1614 -20.7656)" fill="#470303" width="4.971" height="0.126"/>
				</g>
				<g>
					
						<rect x="77.148" y="202.719" transform="matrix(0.9119 0.4103 -0.4103 0.9119 100.6946 -63.6143)" fill="#470303" width="242.804" height="0.125"/>
				</g>
				<g>
					
						<rect x="76.708" y="148.816" transform="matrix(0.9344 0.3563 -0.3563 0.9344 58.1713 -18.0571)" fill="#470303" width="2.787" height="0.125"/>
				</g>
				<g>
					
						<rect x="139.796" y="216.104" transform="matrix(0.9117 0.4109 -0.4109 0.9117 108.999 -74.7757)" fill="#470303" width="177.295" height="0.125"/>
				</g>
				<g>
					
						<rect x="106.799" y="169.302" transform="matrix(0.9292 0.3695 -0.3695 0.9292 71.2274 -33.1863)" fill="#470303" width="30.914" height="0.125"/>
				</g>
				<g>
					<polygon fill="#470303" points="-20.593,113.006 -20.593,113.142 309.167,252.811 309.216,252.695 					"/>
				</g>
				<g>
					
						<rect x="127.043" y="216.147" transform="matrix(0.9212 0.3892 -0.3892 0.9212 101.6943 -69.6118)" fill="#470303" width="191.258" height="0.125"/>
				</g>
				<g>
					<polygon fill="#470303" points="-20.593,108.781 -20.593,108.918 310.765,253.419 310.814,253.305 					"/>
				</g>
				<g>
					
						<rect x="153.69" y="216.959" transform="matrix(0.8997 0.4365 -0.4365 0.8997 118.4451 -81.4403)" fill="#470303" width="165.5" height="0.125"/>
				</g>
				<g>
					
						<rect x="61.403" y="200.072" transform="matrix(0.913 0.4079 -0.4079 0.913 98.312 -60.8185)" fill="#470303" width="260.747" height="0.125"/>
				</g>
				<g>
					
						<rect x="139.957" y="218.692" transform="matrix(0.9209 0.3898 -0.3898 0.9209 103.3903 -71.9199)" fill="#470303" width="177.844" height="0.125"/>
				</g>
				<g>
					
						<rect x="125.358" y="210.284" transform="matrix(0.899 0.4379 -0.4379 0.899 114.6453 -76.4423)" fill="#470303" width="195.404" height="0.125"/>
				</g>
				<g>
					
						<rect x="72.26" y="202.201" transform="matrix(0.9125 0.4092 -0.4092 0.9125 100.0098 -62.9003)" fill="#470303" width="249.475" height="0.126"/>
				</g>
				<g>
					
						<rect x="87.339" y="205.487" transform="matrix(0.9126 0.4088 -0.4088 0.9126 101.8546 -65.5032)" fill="#470303" width="233.681" height="0.125"/>
				</g>
				<g>
					
						<rect x="78.706" y="203.419" transform="matrix(0.9119 0.4103 -0.4103 0.9119 101.1196 -64.1919)" fill="#470303" width="242.803" height="0.126"/>
				</g>
				<g>
					
						<rect x="141.354" y="216.806" transform="matrix(0.9117 0.4109 -0.4109 0.9117 109.4256 -75.3538)" fill="#470303" width="177.294" height="0.125"/>
				</g>
				<g>
					<polygon fill="#470303" points="-20.593,113.006 -20.593,113.143 310.74,253.478 310.789,253.362 					"/>
				</g>
				<g>
					
						<rect x="68.192" y="201.48" transform="matrix(0.9129 0.4082 -0.4082 0.9129 99.2476 -62.0496)" fill="#470303" width="253.665" height="0.126"/>
				</g>
				<g>
					
						<rect x="98.372" y="208.564" transform="matrix(0.9151 0.4031 -0.4031 0.9151 101.8607 -66.6669)" fill="#470303" width="221.839" height="0.126"/>
				</g>
				<g>
					
						<rect x="84.78" y="202.255" transform="matrix(0.9036 0.4283 -0.4283 0.9036 106.2784 -67.6872)" fill="#470303" width="237.535" height="0.125"/>
				</g>
				<g>
					
						<rect x="171.359" y="223.153" transform="matrix(0.9111 0.4121 -0.4121 0.9111 113.6971 -80.8536)" fill="#470303" width="145.948" height="0.125"/>
				</g>
				<g>
					
						<rect x="160.701" y="222.387" transform="matrix(0.9185 0.3955 -0.3955 0.9185 107.4516 -76.3555)" fill="#470303" width="156.455" height="0.126"/>
				</g>
				<g>
					
						<rect x="170.157" y="224.125" transform="matrix(0.9174 0.3979 -0.3979 0.9174 109.322 -78.3824)" fill="#470303" width="146.685" height="0.125"/>
				</g>
				<g>
					
						<rect x="112.774" y="211.564" transform="matrix(0.915 0.4034 -0.4034 0.915 103.7361 -69.222)" fill="#470303" width="206.811" height="0.126"/>
				</g>
				<g>
					
						<rect x="95.643" y="213.4" transform="matrix(0.9327 0.3607 -0.3607 0.9327 90.9187 -60.261)" fill="#470303" width="222.54" height="0.125"/>
				</g>
				<g>
					
						<rect x="161.179" y="220.489" transform="matrix(0.9088 0.4172 -0.4172 0.9088 113.8458 -79.8363)" fill="#470303" width="156.805" height="0.125"/>
				</g>
				<g>
					
						<rect x="118.18" y="214.577" transform="matrix(0.922 0.3872 -0.3872 0.922 100.1421 -67.8122)" fill="#470303" width="200.394" height="0.126"/>
				</g>
				<g>
					
						<rect x="72.555" y="147.883" transform="matrix(0.9175 0.3977 -0.3977 0.9175 65.0364 -17.72)" fill="#470303" width="5.373" height="0.125"/>
				</g>
				<g>
					
						<rect x="66.529" y="144.949" transform="matrix(0.9392 0.3433 -0.3433 0.9392 53.9042 -14.4544)" fill="#470303" width="2.492" height="0.125"/>
				</g>
				<g>
					
						<rect x="77.433" y="150.237" transform="matrix(0.9161 0.4009 -0.4009 0.9161 67.0121 -19.7025)" fill="#470303" width="6.319" height="0.126"/>
				</g>
				<g>
					
						<rect x="66.633" y="200.783" transform="matrix(0.9129 0.4082 -0.4082 0.9129 98.827 -61.4737)" fill="#470303" width="253.665" height="0.125"/>
				</g>
				<g>
					
						<rect x="104.354" y="170.497" transform="matrix(0.888 0.4598 -0.4598 0.888 91.8154 -35.8809)" fill="#470303" width="30.437" height="0.125"/>
				</g>
				<g>
					
						<rect x="105.211" y="168.671" transform="matrix(0.9292 0.3695 -0.3695 0.9292 70.882 -32.6445)" fill="#470303" width="30.914" height="0.125"/>
				</g>
				<g>
					
						<rect x="96.809" y="207.875" transform="matrix(0.9151 0.4031 -0.4031 0.9151 101.4517 -66.0957)" fill="#470303" width="221.839" height="0.126"/>
				</g>
				<g>
					
						<rect x="106.174" y="163.41" transform="matrix(0.9169 0.3992 -0.3992 0.9169 74.1413 -29.0657)" fill="#470303" width="1.36" height="0.124"/>
				</g>
				<g>
					
						<rect x="105.052" y="166.305" transform="matrix(0.8332 0.553 -0.553 0.8332 110.2061 -32.5879)" fill="#470303" width="8.128" height="0.125"/>
				</g>
				<g>
					
						<rect x="20.996" y="126.827" transform="matrix(0.8485 0.5292 -0.5292 0.8485 75.5178 -9.9828)" fill="#470303" width="68.393" height="0.125"/>
				</g>
				<g>
					
						<rect x="169.802" y="222.449" transform="matrix(0.9111 0.4121 -0.4121 0.9111 113.2686 -80.2747)" fill="#470303" width="145.948" height="0.125"/>
				</g>
				<g>
					
						<rect x="164.904" y="189.279" transform="matrix(0.9905 0.1375 -0.1375 0.9905 27.6097 -21.0617)" fill="#470303" width="2.742" height="0.125"/>
				</g>
				<g>
					
						<rect x="159.132" y="221.713" transform="matrix(0.9185 0.3955 -0.3955 0.9185 107.0588 -75.7908)" fill="#470303" width="156.455" height="0.124"/>
				</g>
				<g>
					
						<rect x="163.212" y="189.044" transform="matrix(0.9906 0.1371 -0.1371 0.9906 27.4873 -20.7829)" fill="#470303" width="2.742" height="0.125"/>
				</g>
				<g>
					
						<rect x="168.59" y="223.445" transform="matrix(0.9174 0.3979 -0.3979 0.9174 108.9218 -77.8149)" fill="#470303" width="146.685" height="0.125"/>
				</g>
				<g>
					
						<rect x="164.393" y="188.811" transform="matrix(0.7309 0.6825 -0.6825 0.7309 173.5397 -62.3816)" fill="#470303" width="2.965" height="0.125"/>
				</g>
				<g>
					
						<rect x="111.211" y="210.875" transform="matrix(0.915 0.4034 -0.4034 0.915 103.3263 -68.6503)" fill="#470303" width="206.812" height="0.125"/>
				</g>
				<g>
					
						<rect x="107.74" y="164.092" transform="matrix(0.9169 0.3992 -0.3992 0.9169 74.5438 -29.6342)" fill="#470303" width="1.36" height="0.126"/>
				</g>
				<g>
					
						<rect x="22.367" y="154.635" transform="matrix(0.9267 0.3759 -0.3759 0.9267 62.3208 -10.0313)" fill="#470303" width="69.002" height="0.125"/>
				</g>
				<g>
					
						<rect x="101.721" y="173.072" transform="matrix(0.9854 0.1702 -0.1702 0.9854 31.0854 -16.3472)" fill="#470303" width="18.338" height="0.125"/>
				</g>
				<g>
					
						<rect x="94.049" y="212.784" transform="matrix(0.9327 0.3607 -0.3607 0.9327 90.5891 -59.7278)" fill="#470303" width="222.541" height="0.125"/>
				</g>
				<g>
					
						<rect x="23.95" y="155.277" transform="matrix(0.9267 0.3759 -0.3759 0.9267 62.6804 -10.5792)" fill="#470303" width="69.002" height="0.125"/>
				</g>
				<g>
					
						<rect x="159.627" y="219.776" transform="matrix(0.9088 0.4172 -0.4172 0.9088 113.4071 -79.2536)" fill="#470303" width="156.805" height="0.125"/>
				</g>
				<g>
					
						<rect x="162.844" y="178.922" transform="matrix(0.9447 0.3279 -0.3279 0.9447 68.0636 -43.4616)" fill="#470303" width="0.125" height="2.347"/>
				</g>
				<g>
					
						<rect x="163.144" y="187.645" transform="matrix(0.731 0.6824 -0.6824 0.731 172.3799 -61.8441)" fill="#470303" width="2.965" height="0.125"/>
				</g>
				<g>
					
						<rect x="120.142" y="174.079" transform="matrix(0.9394 0.3427 -0.3427 0.9394 67.0937 -31.4026)" fill="#470303" width="4.519" height="0.126"/>
				</g>
				<g>
					
						<rect x="116.605" y="213.917" transform="matrix(0.922 0.3872 -0.3872 0.922 99.7647 -67.2545)" fill="#470303" width="200.393" height="0.125"/>
				</g>
				<g>
					
						<rect x="106.475" y="167.25" transform="matrix(0.8332 0.553 -0.553 0.8332 110.9728 -33.2175)" fill="#470303" width="8.13" height="0.126"/>
				</g>
				<g>
					<polygon fill="#470303" points="548.604,125.361 523.482,116.167 523.439,116.284 548.604,125.494 					"/>
				</g>
				<g>
					<polygon fill="#470303" points="548.604,117.288 512.516,97.653 512.456,97.763 548.604,117.43 					"/>
				</g>
				<g>
					<polygon fill="#470303" points="548.604,123.011 516.675,109.67 516.627,109.786 548.604,123.147 					"/>
				</g>
				<g>
					<polygon fill="#470303" points="548.604,128.334 528.249,122.219 528.213,122.339 548.604,128.465 					"/>
				</g>
				<g>
					<polygon fill="#470303" points="548.604,131.971 531.731,128.256 531.704,128.379 548.604,132.1 					"/>
				</g>
				<g>
					<polygon fill="#470303" points="548.604,125.361 521.878,115.579 521.835,115.696 548.604,125.494 					"/>
				</g>
				<g>
					<polygon fill="#470303" points="548.604,117.288 511.016,96.837 510.955,96.947 548.604,117.43 					"/>
				</g>
				<g>
					<polygon fill="#470303" points="548.604,123.011 515.1,109.012 515.051,109.128 548.604,123.147 					"/>
				</g>
				<g>
					<polygon fill="#470303" points="548.604,128.333 526.613,121.727 526.577,121.848 548.604,128.465 					"/>
				</g>
				<g>
					<polygon fill="#470303" points="548.604,131.971 530.063,127.889 530.036,128.011 548.604,132.1 					"/>
				</g>
				<g>
					<polygon fill="#470303" points="333.573,-13.326 512.845,112.129 512.916,112.027 333.791,-13.326 					"/>
				</g>
				<g>
					<polygon fill="#470303" points="335.902,-13.326 512.87,112.092 512.943,111.99 336.12,-13.326 					"/>
				</g>
				<g>
					<polygon fill="#470303" points="333.573,-13.326 514.244,113.109 514.316,113.007 333.791,-13.326 					"/>
				</g>
				<g>
					<polygon fill="#470303" points="334.356,-13.326 514.251,113.099 514.323,112.997 334.574,-13.326 					"/>
				</g>
				<g>
					<polygon fill="#470303" points="548.604,182.313 539.882,165.655 539.771,165.714 548.604,182.584 					"/>
				</g>
				<g>
					<polygon fill="#470303" points="548.604,182.313 539.09,164.143 538.979,164.201 548.604,182.584 					"/>
				</g>
				<g>
					
						<rect x="443.871" y="125.499" transform="matrix(0.7942 0.6076 -0.6076 0.7942 177.683 -273.5492)" fill="#470303" width="97.693" height="0.125"/>
				</g>
				<g>
					
						<rect x="442.514" y="124.461" transform="matrix(0.7942 0.6076 -0.6076 0.7942 176.7766 -272.941)" fill="#470303" width="97.693" height="0.125"/>
				</g>
				<g>
					<circle fill="#FF171D" cx="298.281" cy="203.35" r="0.773"/>
					<circle fill="#FF171D" cx="401.313" cy="251.697" r="0.169"/>
					<circle fill="#FF171D" cx="534.855" cy="195.373" r="1.387"/>
					<circle fill="#FF171D" cx="544.846" cy="196.332" r="0.579"/>
					<circle fill="#FF171D" cx="505.834" cy="170.096" r="0.542"/>
					<circle fill="#FF171D" cx="510.191" cy="142.847" r="1.098"/>
					<circle fill="#FF171D" cx="316.27" cy="255.751" r="0.767"/>
					<circle fill="#FF171D" cx="512.291" cy="152.297" r="1.047"/>
					<circle fill="#FF171D" cx="536.26" cy="158.875" r="0.422"/>
					<circle fill="#FF171D" cx="546.862" cy="232.271" r="0.876"/>
					<circle fill="#FF171D" cx="209.104" cy="166.889" r="0.83"/>
					<circle fill="#FF171D" cx="258.783" cy="189.924" r="0.258"/>
					<circle fill="#FF171D" cx="184.291" cy="154.082" r="0.94"/>
					<circle fill="#FF171D" cx="185.479" cy="157.342" r="0.18"/>
					<circle fill="#FF171D" cx="219.578" cy="170.531" r="0.958"/>
					<circle fill="#FF171D" cx="236.045" cy="178.101" r="1.406"/>
					<circle fill="#FF171D" cx="488.22" cy="255.895" r="0.784"/>
					<circle fill="#FF171D" cx="455.634" cy="238.456" r="1.004"/>
					<circle fill="#FF171D" cx="368.296" cy="200.688" r="0.453"/>
					<circle fill="#FF171D" cx="177.882" cy="148.154" r="0.905"/>
					<circle fill="#FF171D" cx="182.76" cy="148.64" r="0.391"/>
					<circle fill="#FF171D" cx="26.449" cy="307.726" r="0.257"/>
					<circle fill="#FF171D" cx="247.576" cy="196.986" r="0.981"/>
					<circle fill="#FF171D" cx="248.096" cy="203.848" r="0.425"/>
					<circle fill="#FF171D" cx="412.805" cy="306.949" r="0.559"/>
					<circle fill="#FF171D" cx="299.853" cy="277.074" r="0.276"/>
					<circle fill="#FF171D" cx="264.042" cy="263.354" r="0.592"/>
					<circle fill="#FF171D" cx="369.904" cy="311.503" r="1.257"/>
					<circle fill="#FF171D" cx="277.81" cy="270.169" r="1.292"/>
					<circle fill="#FF171D" cx="279.047" cy="263.911" r="1.275"/>
					<circle fill="#FF171D" cx="277.205" cy="269.37" r="0.682"/>
					<circle fill="#FF171D" cx="246.913" cy="12.353" r="0.929"/>
					<circle fill="#FF171D" cx="338.326" cy="83.519" r="0.385"/>
					<circle fill="#FF171D" cx="491.029" cy="75.278" r="0.912"/>
					<circle fill="#FF171D" cx="346.911" cy="31.469" r="0.478"/>
					<circle fill="#FF171D" cx="375.392" cy="35.648" r="0.557"/>
					<circle fill="#FF171D" cx="337.685" cy="26.168" r="1.273"/>
					<circle fill="#FF171D" cx="425.615" cy="78.893" r="0.53"/>
					<circle fill="#FF171D" cx="447.816" cy="91.21" r="1.32"/>
					<circle fill="#FF171D" cx="360.598" cy="43.007" r="0.672"/>
					<circle fill="#FF171D" cx="477.471" cy="127.915" r="1.388"/>
					<circle fill="#FF171D" cx="362.095" cy="59.667" r="1.356"/>
					<circle fill="#FF171D" cx="347.201" cy="53.521" r="0.867"/>
					<circle fill="#FF171D" cx="359.571" cy="62.996" r="1.321"/>
					<circle fill="#FF171D" cx="422.784" cy="64.609" r="0.926"/>
					<circle fill="#FF171D" cx="525.463" cy="294.893" r="0.999"/>
					<circle fill="#FF171D" cx="376.978" cy="305.104" r="0.476"/>
					<circle fill="#FF171D" cx="378.475" cy="302.313" r="0.95"/>
					<circle fill="#FF171D" cx="82.141" cy="275.611" r="0.544"/>
					<circle fill="#FF171D" cx="58.125" cy="233.052" r="0.188"/>
					<circle fill="#FF171D" cx="539.667" cy="283.367" r="0.614"/>
					<circle fill="#FF171D" cx="545.434" cy="267.564" r="1.264"/>
					<circle fill="#FF171D" cx="538.952" cy="279.313" r="1.118"/>
					<circle fill="#FF171D" cx="535.551" cy="282.758" r="0.675"/>
					<circle fill="#FF171D" cx="545.063" cy="270.562" r="1.242"/>
					<circle fill="#FF171D" cx="532.442" cy="264.068" r="0.779"/>
					<circle fill="#FF171D" cx="543.719" cy="263.194" r="1.137"/>
					<circle fill="#FF171D" cx="541.794" cy="266.973" r="0.953"/>
					<circle fill="#FF171D" cx="539.271" cy="268.68" r="0.414"/>
					<circle fill="#FF171D" cx="547.388" cy="260.894" r="0.857"/>
					<circle fill="#FF171D" cx="528.931" cy="285.412" r="0.509"/>
					<circle fill="#FF171D" cx="518.228" cy="254.64" r="1.342"/>
					<circle fill="#FF171D" cx="518.038" cy="256.625" r="0.305"/>
					<circle fill="#FF171D" cx="321.55" cy="276.314" r="0.834"/>
					<circle fill="#FF171D" cx="233.536" cy="237.632" r="0.567"/>
					<circle fill="#FF171D" cx="127.5" cy="176.003" r="1.2"/>
					<circle fill="#FF171D" cx="118.908" cy="172.868" r="0.219"/>
					<circle fill="#FF171D" cx="155.073" cy="177.545" r="0.473"/>
					<circle fill="#FF171D" cx="153.535" cy="180.12" r="0.469"/>
					<circle fill="#FF171D" cx="65.723" cy="143.821" r="1.04"/>
					<circle fill="#FF171D" cx="76.166" cy="148.078" r="0.852"/>
					<circle fill="#FF171D" cx="90.53" cy="154.648" r="1.246"/>
					<circle fill="#FF171D" cx="82.387" cy="150.512" r="0.624"/>
					<circle fill="#FF171D" cx="72.22" cy="146.637" r="1.237"/>
					<circle fill="#FF171D" cx="100.749" cy="160.813" r="1.174"/>
					<circle fill="#FF171D" cx="114.526" cy="166.813" r="0.749"/>
					<circle fill="#FF171D" cx="139.913" cy="181.092" r="1.006"/>
					<circle fill="#FF171D" cx="142.654" cy="168.738" r="1.124"/>
					<circle fill="#FF171D" cx="128.315" cy="164.193" r="1.268"/>
					<circle fill="#FF171D" cx="139.656" cy="172.054" r="0.863"/>
					<circle fill="#FF171D" cx="19.655" cy="104.724" r="0.782"/>
					<circle fill="#FF171D" cx="90.852" cy="142.162" r="1.338"/>
					<circle fill="#FF171D" cx="142.175" cy="177.285" r="0.149"/>
					<circle fill="#FF171D" cx="89.28" cy="148.152" r="1.357"/>
					<circle fill="#FF171D" cx="170.839" cy="189.976" r="0.319"/>
					<circle fill="#FF171D" cx="160.018" cy="188.473" r="0.949"/>
					<circle fill="#FF171D" cx="169.162" cy="191.942" r="0.26"/>
					<circle fill="#FF171D" cx="95.962" cy="170.557" r="0.871"/>
					<circle fill="#FF171D" cx="161.34" cy="184.639" r="0.189"/>
					<circle fill="#FF171D" cx="19.356" cy="139.481" r="1.011"/>
					<circle fill="#FF171D" cx="516.241" cy="113.583" r="0.618"/>
					<circle fill="#FF171D" cx="505.733" cy="94.034" r="0.971"/>
					<circle fill="#FF171D" cx="520.869" cy="120.067" r="0.233"/>
					<circle fill="#FF171D" cx="524.21" cy="126.665" r="0.914"/>
				</g>
			</g>
		</g>
	</g>
	<g display="none">
		<g display="inline">
			<path fill="#E6151A" d="M301.827,148.825c4.026,0,7.302,3.275,7.302,7.302c0,4.025-3.275,7.302-7.302,7.302H238.17
				c-4.026,0-7.301-3.276-7.301-7.302c0-4.026,3.275-7.302,7.301-7.302H301.827 M301.827,147.964H238.17
				c-4.49,0-8.163,3.674-8.163,8.163s3.673,8.162,8.163,8.162h63.657c4.49,0,8.163-3.673,8.163-8.162
				S306.317,147.964,301.827,147.964L301.827,147.964z"/>
			<g>
				<path fill="#E6151A" d="M246.543,159.377c-0.286,0-0.53-0.046-0.732-0.139c-0.201-0.092-0.36-0.227-0.475-0.404
					c-0.114-0.179-0.197-0.384-0.247-0.615c-0.05-0.232-0.074-0.502-0.074-0.812v-2.423c0-0.313,0.024-0.585,0.073-0.813
					c0.048-0.229,0.13-0.431,0.244-0.607c0.115-0.178,0.276-0.311,0.484-0.399c0.208-0.091,0.463-0.136,0.765-0.136
					c0.535,0,0.919,0.149,1.151,0.447c0.231,0.298,0.348,0.743,0.348,1.336v0.221h-0.55v-0.221c0-0.463-0.066-0.799-0.198-1.007
					s-0.38-0.313-0.744-0.313c-0.167,0-0.31,0.024-0.43,0.073c-0.119,0.049-0.215,0.111-0.286,0.19
					c-0.07,0.079-0.127,0.183-0.168,0.31c-0.041,0.129-0.068,0.26-0.082,0.392s-0.021,0.289-0.021,0.471v2.546
					c0,0.239,0.015,0.441,0.043,0.607s0.079,0.313,0.151,0.441c0.072,0.128,0.175,0.223,0.309,0.285
					c0.133,0.063,0.298,0.094,0.495,0.094c0.363,0,0.616-0.118,0.757-0.355c0.141-0.236,0.211-0.599,0.211-1.088v-0.731h-0.912
					v-0.431h1.451v2.998h-0.374l-0.071-0.703C247.49,159.115,247.117,159.377,246.543,159.377z"/>
				<path fill="#E6151A" d="M250.494,159.295v-6.197h2.239v0.448h-1.652v2.321h1.354v0.434h-1.354v2.557h1.671v0.438H250.494z"/>
				<path fill="#E6151A" d="M255.591,159.295v-5.749h-1.244v-0.448h3.046v0.448h-1.215v5.749H255.591z"/>
				<path fill="#E6151A" d="M263.54,159.37c-0.491,0-0.863-0.147-1.116-0.443c-0.253-0.295-0.398-0.708-0.438-1.239l0.52-0.149
					c0.018,0.165,0.039,0.31,0.065,0.436s0.064,0.249,0.115,0.37c0.052,0.121,0.114,0.22,0.188,0.297
					c0.073,0.078,0.167,0.14,0.28,0.188c0.113,0.047,0.243,0.07,0.391,0.07c0.583,0,0.875-0.299,0.875-0.896
					c0-0.132-0.018-0.256-0.051-0.373c-0.033-0.115-0.087-0.229-0.161-0.339c-0.073-0.111-0.15-0.212-0.231-0.302
					c-0.081-0.089-0.187-0.197-0.315-0.325l-1.1-1.055c-0.374-0.358-0.561-0.774-0.561-1.248c0-0.421,0.125-0.747,0.376-0.979
					c0.25-0.232,0.59-0.35,1.019-0.353c0.01,0,0.019,0,0.026,0c0.45,0,0.796,0.123,1.035,0.367c0.244,0.249,0.386,0.651,0.426,1.207
					l-0.493,0.127c-0.035-0.418-0.125-0.732-0.27-0.941c-0.14-0.199-0.363-0.299-0.673-0.299c-0.015,0-0.029,0-0.045,0
					c-0.271,0.007-0.485,0.077-0.641,0.213c-0.156,0.135-0.233,0.338-0.233,0.609c0,0.169,0.033,0.323,0.099,0.461
					c0.066,0.139,0.179,0.285,0.339,0.439l1.091,1.036c0.282,0.269,0.504,0.541,0.666,0.816s0.243,0.574,0.243,0.896
					c0,0.451-0.131,0.799-0.391,1.043C264.313,159.248,263.968,159.37,263.54,159.37z"/>
				<path fill="#E6151A" d="M267.781,159.295v-5.749h-1.244v-0.448h3.046v0.448h-1.215v5.749H267.781z"/>
				<path fill="#E6151A" d="M271.132,159.295l1.309-6.197h0.614l1.314,6.197h-0.57l-0.307-1.655h-1.48l-0.314,1.655H271.132z
					 M272.094,157.213h1.318l-0.66-3.342L272.094,157.213z"/>
				<path fill="#E6151A" d="M276.492,159.295v-6.197h1.408c0.552,0,0.944,0.133,1.182,0.397c0.236,0.266,0.355,0.654,0.355,1.169
					c0,0.854-0.287,1.342-0.863,1.461l0.961,3.17h-0.576l-0.908-3.046h-0.973v3.046H276.492z M277.078,155.818h0.79
					c0.374,0,0.634-0.091,0.78-0.274s0.221-0.478,0.221-0.88c0-0.399-0.07-0.687-0.209-0.864c-0.141-0.177-0.398-0.265-0.773-0.265
					h-0.809V155.818z"/>
				<path fill="#E6151A" d="M282.461,159.295v-5.749h-1.245v-0.448h3.046v0.448h-1.215v5.749H282.461z"/>
				<path fill="#E6151A" d="M286.141,159.295v-6.197h2.24v0.448h-1.653v2.321h1.354v0.434h-1.354v2.557h1.671v0.438H286.141z"/>
				<path fill="#E6151A" d="M290.568,159.295v-6.197h1.357c0.252,0,0.475,0.028,0.668,0.086c0.192,0.057,0.354,0.137,0.48,0.238
					c0.127,0.103,0.23,0.23,0.311,0.386c0.078,0.154,0.135,0.321,0.17,0.501c0.033,0.18,0.049,0.382,0.049,0.609v2.463
					c0,0.302-0.027,0.566-0.082,0.793s-0.145,0.426-0.269,0.598c-0.125,0.172-0.294,0.303-0.507,0.391s-0.471,0.133-0.775,0.133
					H290.568z M291.156,158.857h0.78c0.192,0,0.354-0.027,0.489-0.08c0.132-0.054,0.236-0.122,0.313-0.205
					c0.076-0.084,0.136-0.198,0.178-0.343c0.043-0.145,0.07-0.286,0.08-0.425c0.012-0.138,0.018-0.309,0.018-0.514v-2.313
					c0-0.2-0.008-0.369-0.023-0.509c-0.018-0.139-0.049-0.271-0.094-0.395c-0.047-0.123-0.11-0.221-0.191-0.295
					c-0.081-0.073-0.188-0.131-0.318-0.172s-0.287-0.062-0.469-0.062h-0.762V158.857z"/>
			</g>
		</g>
		<g display="inline">
			<path fill="#A8A8A8" d="M235.98,115.576h-3.075v-0.835h7.098v0.835h-2.999v14.538h-1.025V115.576z"/>
			<path fill="#A8A8A8" d="M245.204,114.741h5.314v0.835h-4.27v6.168h3.511v0.797h-3.511v6.756h4.327v0.816h-5.371V114.741z"/>
			<path fill="#A8A8A8" d="M256.591,129.098c-0.544-0.816-0.816-1.952-0.816-3.407v-6.529c0-1.455,0.278-2.584,0.835-3.388
				c0.557-0.803,1.524-1.205,2.903-1.205c1.278,0,2.183,0.37,2.714,1.11c0.531,0.74,0.797,1.813,0.797,3.217v0.778h-0.987v-0.778
				c0-1.177-0.184-2.05-0.55-2.619c-0.367-0.569-1.025-0.854-1.974-0.854c-1.038,0-1.746,0.304-2.125,0.911
				c-0.379,0.607-0.569,1.512-0.569,2.714v6.794c0,1.214,0.196,2.123,0.588,2.723c0.392,0.601,1.094,0.901,2.106,0.901
				c0.961,0,1.623-0.294,1.983-0.882c0.361-0.588,0.541-1.458,0.541-2.609v-0.93h0.987v0.759c0,1.442-0.259,2.556-0.778,3.34
				c-0.519,0.785-1.43,1.177-2.733,1.177C258.109,130.322,257.135,129.914,256.591,129.098z"/>
			<path fill="#A8A8A8" d="M268.775,114.741h1.044v6.927h5.39v-6.927h1.025v15.373h-1.025v-7.648h-5.39v7.648h-1.044V114.741z"/>
			<path fill="#A8A8A8" d="M282.496,114.741h0.816l5.219,12.981v-12.981h0.912v15.373h-0.816l-5.219-13v13h-0.912V114.741z"/>
			<path fill="#A8A8A8" d="M296.209,129.117c-0.563-0.803-0.845-1.926-0.845-3.369v-6.718c0-1.417,0.288-2.515,0.863-3.293
				c0.576-0.778,1.554-1.167,2.933-1.167c1.367,0,2.341,0.392,2.923,1.177c0.581,0.785,0.873,1.879,0.873,3.283v6.737
				c0,1.442-0.282,2.562-0.845,3.359c-0.563,0.797-1.547,1.196-2.951,1.196S296.771,129.92,296.209,129.117z M301.314,128.576
				c0.398-0.595,0.598-1.461,0.598-2.6v-7.098c0-1.139-0.199-1.999-0.598-2.581c-0.399-0.582-1.117-0.873-2.154-0.873
				s-1.756,0.291-2.154,0.873s-0.598,1.442-0.598,2.581v7.098c0,1.151,0.199,2.021,0.598,2.609s1.117,0.882,2.154,0.882
				S300.915,129.171,301.314,128.576z"/>
		</g>
		<g display="inline">
			<path fill="#A8A8A8" d="M221.127,134.803h1.712c0.588,0,1.047,0.077,1.379,0.229c0.332,0.153,0.567,0.388,0.709,0.705
				c0.141,0.317,0.212,0.738,0.212,1.262v2.55c0,0.536-0.069,0.967-0.208,1.292c-0.139,0.326-0.372,0.568-0.701,0.726
				c-0.328,0.159-0.781,0.238-1.357,0.238h-1.747V134.803z M222.856,140.812c0.248,0,0.431-0.039,0.549-0.117
				c0.118-0.078,0.193-0.191,0.225-0.342c0.032-0.149,0.047-0.366,0.047-0.648v-2.896c0-0.265-0.019-0.465-0.056-0.601
				c-0.038-0.135-0.114-0.236-0.229-0.302s-0.297-0.1-0.544-0.1h-0.303v5.006H222.856z"/>
			<path fill="#A8A8A8" d="M228.571,134.803h1.582l1.349,7.003h-1.314l-0.26-1.539h-1.106l-0.268,1.539h-1.34L228.571,134.803z
				 M229.79,139.385l-0.423-2.818l-0.415,2.818H229.79z"/>
			<path fill="#A8A8A8" d="M234.07,135.857h-1.081v-1.055h3.58v1.055h-1.063v5.948h-1.435V135.857z"/>
			<path fill="#A8A8A8" d="M239.517,134.803h1.582l1.349,7.003h-1.314l-0.26-1.539h-1.106l-0.268,1.539h-1.34L239.517,134.803z
				 M240.735,139.385l-0.423-2.818l-0.415,2.818H240.735z"/>
			<path fill="#A8A8A8" d="M248.093,134.803h1.236l0.83,4.842l0.778-4.842h1.288l-1.332,7.003h-1.47L248.093,134.803z"/>
			<path fill="#A8A8A8" d="M254.507,134.803h1.418v7.003h-1.418V134.803z"/>
			<path fill="#A8A8A8" d="M258.899,141.369c-0.323-0.354-0.499-0.903-0.527-1.647l1.228-0.208c0.012,0.444,0.074,0.771,0.186,0.981
				s0.281,0.315,0.506,0.315c0.167,0,0.288-0.053,0.363-0.16c0.075-0.106,0.112-0.243,0.112-0.411c0-0.276-0.062-0.511-0.186-0.705
				c-0.124-0.193-0.319-0.405-0.583-0.635l-0.727-0.631c-0.288-0.242-0.509-0.501-0.661-0.778c-0.153-0.277-0.229-0.608-0.229-0.994
				c0-0.571,0.168-1.01,0.505-1.319c0.337-0.308,0.803-0.462,1.396-0.462c0.634,0,1.075,0.183,1.323,0.549
				c0.248,0.366,0.389,0.831,0.424,1.396l-1.236,0.182c-0.012-0.369-0.054-0.641-0.125-0.817c-0.072-0.176-0.215-0.264-0.428-0.264
				c-0.155,0-0.276,0.059-0.363,0.177s-0.13,0.258-0.13,0.419c0,0.231,0.05,0.425,0.151,0.583c0.101,0.159,0.261,0.333,0.48,0.523
				l0.709,0.622c0.334,0.294,0.596,0.604,0.787,0.93c0.19,0.326,0.285,0.708,0.285,1.146c0,0.334-0.075,0.632-0.225,0.895
				c-0.15,0.263-0.362,0.469-0.636,0.618c-0.273,0.15-0.589,0.225-0.946,0.225C259.706,141.901,259.222,141.724,258.899,141.369z"/>
			<path fill="#A8A8A8" d="M265.219,141.637c-0.294-0.176-0.501-0.431-0.622-0.765c-0.121-0.334-0.182-0.761-0.182-1.28v-4.79h1.4
				v4.989c0,0.334,0.041,0.596,0.121,0.787c0.081,0.19,0.248,0.285,0.501,0.285c0.253,0,0.42-0.095,0.501-0.285
				c0.081-0.19,0.121-0.453,0.121-0.787v-4.989h1.409v4.79c0,0.519-0.061,0.945-0.182,1.28c-0.121,0.334-0.33,0.589-0.627,0.765
				s-0.705,0.264-1.223,0.264S265.513,141.813,265.219,141.637z"/>
			<path fill="#A8A8A8" d="M271.98,134.803h1.581l1.35,7.003h-1.314l-0.26-1.539h-1.106l-0.268,1.539h-1.34L271.98,134.803z
				 M273.199,139.385l-0.424-2.818l-0.415,2.818H273.199z"/>
			<path fill="#A8A8A8" d="M277.176,134.803h1.418v6.035h1.65v0.968h-3.068V134.803z"/>
			<path fill="#A8A8A8" d="M282.492,134.803h1.418v7.003h-1.418V134.803z"/>
			<path fill="#A8A8A8" d="M286.271,140.924l1.79-5.144h-1.703v-0.977h3.111v0.778l-1.824,5.256h1.842v0.968h-3.216V140.924z"/>
			<path fill="#A8A8A8" d="M292.807,134.803h1.582l1.348,7.003h-1.313l-0.26-1.539h-1.106l-0.268,1.539h-1.34L292.807,134.803z
				 M294.025,139.385l-0.424-2.818l-0.415,2.818H294.025z"/>
			<path fill="#A8A8A8" d="M298.305,135.857h-1.081v-1.055h3.579v1.055h-1.063v5.948h-1.436V135.857z"/>
			<path fill="#A8A8A8" d="M303.007,134.803h1.419v7.003h-1.419V134.803z"/>
			<path fill="#A8A8A8" d="M307.416,141.317c-0.316-0.389-0.475-0.961-0.475-1.716v-2.611c0-0.755,0.158-1.323,0.475-1.703
				c0.317-0.38,0.848-0.571,1.591-0.571c0.738,0,1.267,0.192,1.587,0.575s0.48,0.95,0.48,1.699v2.62c0,0.749-0.16,1.318-0.48,1.708
				c-0.32,0.389-0.849,0.583-1.587,0.583C308.264,141.901,307.733,141.706,307.416,141.317z M309.496,140.634
				c0.084-0.165,0.125-0.391,0.125-0.679v-3.311c0-0.288-0.041-0.512-0.125-0.67c-0.084-0.158-0.247-0.237-0.489-0.237
				c-0.241,0-0.404,0.079-0.487,0.237c-0.084,0.159-0.126,0.382-0.126,0.67v3.311c0,0.294,0.04,0.521,0.121,0.683
				c0.08,0.161,0.245,0.242,0.492,0.242C309.249,140.88,309.412,140.798,309.496,140.634z"/>
			<path fill="#A8A8A8" d="M313.58,134.803h0.994l1.557,3.64v-3.64h1.185v7.003h-0.96l-1.556-3.873v3.873h-1.22V134.803z"/>
		</g>
	</g>
</g>
</svg>
