<?xml version="1.0" encoding="UTF-8" standalone="no"?>
<!-- Generator: Adobe Illustrator 16.0.0, SVG Export Plug-In . SVG Version: 6.00 Build 0)  -->

<svg
   xmlns:dc="http://purl.org/dc/elements/1.1/"
   xmlns:cc="http://creativecommons.org/ns#"
   xmlns:rdf="http://www.w3.org/1999/02/22-rdf-syntax-ns#"
   xmlns:svg="http://www.w3.org/2000/svg"
   xmlns="http://www.w3.org/2000/svg"
   xmlns:sodipodi="http://sodipodi.sourceforge.net/DTD/sodipodi-0.dtd"
   xmlns:inkscape="http://www.inkscape.org/namespaces/inkscape"
   version="1.1"
   id="salt_shaker"
   x="0px"
   y="0px"
   width="297px"
   height="309px"
   viewBox="0 0 297 309"
   enable-background="new 0 0 297 309"
   xml:space="preserve"
   inkscape:version="0.92.2 5c3e80d, 2017-08-06"
   sodipodi:docname="mouse-2.svg"><metadata
     id="metadata50"><rdf:RDF><cc:Work
         rdf:about=""><dc:format>image/svg+xml</dc:format><dc:type
           rdf:resource="http://purl.org/dc/dcmitype/StillImage" /><dc:title /></cc:Work></rdf:RDF></metadata><defs
     id="defs48" /><sodipodi:namedview
     pagecolor="#ffffff"
     bordercolor="#666666"
     borderopacity="1"
     objecttolerance="10"
     gridtolerance="10"
     guidetolerance="10"
     inkscape:pageopacity="0"
     inkscape:pageshadow="2"
     inkscape:window-width="1440"
     inkscape:window-height="851"
     id="namedview46"
     showgrid="false"
     inkscape:zoom="2.0647249"
     inkscape:cx="148.5"
     inkscape:cy="154.5"
     inkscape:window-x="0"
     inkscape:window-y="1"
     inkscape:window-maximized="1"
     inkscape:current-layer="salt_shaker"
     showguides="true"
     inkscape:guide-bbox="true" /><g
     id="g504"
     transform="matrix(1.0829725,0,0,1.0829725,0.2290866,-2.6993728)"><path
       d="M 74.722636,23.94029 C 76.194738,49.387674 69.603364,63.73826 57.377301,69.900007 L 45.41593,74.277408 C 34.120612,78.409736 26.960616,88.653266 26.960616,100.68181 v 138.21866 c 0,12.02854 7.159996,22.27174 18.455314,26.40473 l 32.57313,11.91815 c 11.379447,4.16325 22.47292,4.16325 33.8517,0 l 32.5738,-11.91815 c 11.29531,-4.13299 18.45531,-14.37619 18.45531,-26.40473 V 100.68181 c 0,-12.028544 -7.16,-22.272074 -18.45531,-26.404402 L 132.45219,69.900007 C 120.22646,63.73826 113.63575,49.387674 115.10818,23.94029 H 74.722636"
       id="path4"
       inkscape:connector-curvature="0"
       style="fill:#637ac7;fill-opacity:1;stroke-width:0.33252817" /><path
       d="m 115.07493,36.471282 c -0.23443,-3.838041 -0.22845,-8.008609 0.0333,-12.530992 h -13.13985 l -27.04252,6.947843 c 11.12074,6.10289 24.108959,8.702595 40.14713,5.583149 h 0.002"
       id="path6"
       inkscape:connector-curvature="0"
       style="fill:#7e919f;stroke-width:0.33252817" /><path
       d="m 77.89961,26.976272 c 0.56164,17.107577 -2.382232,37.180641 -19.155286,45.635835 l -0.158283,0.07848 -12.12697,4.437921 C 36.360522,80.823225 29.99693,89.927847 29.99693,100.68181 v 138.21866 c 0,10.7543 6.363592,19.85858 16.462141,23.55364 l 32.573795,11.91781 c 10.699094,3.91419 21.064994,3.91419 31.764754,3.3e-4 l 32.5738,-11.91814 c 10.09854,-3.69472 16.46247,-12.79934 16.46247,-23.55364 V 100.68181 c 0,-10.753963 -6.36393,-19.858585 -16.46314,-23.553306 l -12.12697,-4.437921 -0.15762,-0.07814 C 114.31311,64.156913 111.3699,44.083849 111.93088,26.976272 H 77.89961"
       id="path8"
       inkscape:connector-curvature="0"
       style="fill:#63639b;fill-opacity:1;stroke-width:0.33252817" /><path
       d="m 77.96013,30.108355 c 0.005,0.772795 0,1.548584 -0.01264,2.327032 9.716141,4.627462 20.847854,6.597359 34.1174,4.559294 -0.21947,-3.379484 -0.24109,-6.753315 -0.13401,-10.018409 H 90.152941 L 77.96013,30.108355"
       id="path10"
       inkscape:connector-curvature="0"
       style="fill:#748693;stroke-width:0.33252817" /><path
       d="m 36.699701,93.774533 c -0.777118,2.140816 -1.189453,4.465188 -1.189453,6.907277 v 138.21866 c 0,8.43923 4.918091,15.4762 12.843568,18.37617 l 31.921375,11.67873 c 2.353302,0.86124 4.762801,0.54667 6.816828,-0.88852 2.053029,-1.43552 3.176309,-3.58997 3.176309,-6.09624 V 123.44469 c 0,-6.16374 -3.669448,-11.41303 -9.457766,-13.53123 z M 84.280826,33.337536 H 105.549 c 0.16825,6.527861 1.41357,15.184567 4.3192,23.316543 3.79914,10.627601 11.35784,18.242496 21.9575,22.120773 l 9.65097,3.530784 c 2.34798,0.859918 4.4316,2.081294 6.20198,3.594962 L 107.5292,100.5897 c -8.480133,3.10249 -16.747781,3.10249 -25.228912,0 L 42.152831,85.900598 c 1.769715,-1.513668 3.853004,-2.735044 6.200985,-3.594962 l 8.844252,-3.235167 C 67.414331,75.331855 74.761542,68.16155 78.745894,58.039724 82.097113,49.527003 84.108576,40.069236 84.280826,33.337536 Z m 70.039414,67.344274 c 0,-2.442089 -0.412,-4.766461 -1.18945,-6.907277 l -44.11087,16.138927 c -5.78931,2.1182 -9.457429,7.36749 -9.457429,13.53123 v 138.52592 c 0,2.50627 1.122949,4.66072 3.176979,6.09624 2.05336,1.43519 4.46352,1.74976 6.81583,0.88852 l 31.92137,-11.67873 c 7.92647,-2.89997 12.84357,-9.93694 12.84357,-18.37617 V 100.68181"
       id="path12"
       inkscape:connector-curvature="0"
       style="fill:#bccdd8;fill-opacity:1;stroke-width:0.33252817" /><path
       d="m 84.207004,34.969252 c 6.514893,2.181717 13.65261,3.195928 21.593386,2.704451 -0.13434,-1.520983 -0.21648,-2.975462 -0.25139,-4.336167 H 84.280826 c -0.01297,0.52739 -0.03758,1.071738 -0.07382,1.631716"
       id="path14"
       inkscape:connector-curvature="0"
       style="fill:#92a9b8;stroke-width:0.33252817" /><path
       d="m 39.832782,110.1705 c 0,36.12786 0,72.25671 0,108.38457 20.026177,-6.10422 23.878848,-47.1648 24.441153,-90.40045 0.133012,-10.26182 -5.061411,-19.27932 -13.636648,-24.22534 -2.290454,-1.32213 -4.913104,-1.32047 -7.20389,0.002 -2.290454,1.32313 -3.600615,3.59397 -3.600615,6.23956"
       id="path16"
       inkscape:connector-curvature="0"
       style="fill:#d1e1ea;stroke-width:0.33252817" /><path
       d="m 122.62299,109.53903 -12.11833,4.43393 c -4.08477,1.49438 -6.62063,5.12193 -6.62063,9.47173 V 247.1076 c 41.17729,-23.77377 33.02071,-84.24834 31.22107,-129.21048 -0.12237,-3.06391 -1.56821,-5.64599 -4.1167,-7.35286 -2.54783,-1.70487 -5.48638,-2.05868 -8.36541,-1.00523"
       id="path18"
       inkscape:connector-curvature="0"
       style="fill:#d1e1ea;stroke-width:0.33252817" /><path
       d="m 90.268328,173.65911 -54.75808,-20.03383 v -6.25652 l 54.75808,-20.03482 z m 9.294163,-46.32517 v 46.32517 l 54.757749,-20.03383 v -6.25652 L 99.562491,127.33394"
       id="path20"
       inkscape:connector-curvature="0"
       style="fill:#aa0000;stroke-width:0.33252817" /><path
       d="m 39.832782,145.78693 v 9.41919 l 22.882261,8.37173 c 0.742536,-8.47016 1.165179,-17.47003 1.394291,-26.67275 l -24.276552,8.88183"
       id="path22"
       inkscape:connector-curvature="0"
       style="fill:#ff0000;stroke-width:0.33252817" /><path
       d="M 103.88403,172.07827 136.9207,159.9912 c -0.0994,-6.4557 -0.36511,-12.90575 -0.67703,-19.23642 l -32.35964,-11.84 v 43.16349"
       id="path24"
       inkscape:connector-curvature="0"
       style="fill:#ff0000;stroke-width:0.33252817" /><path
       d="m 99.562491,173.65911 v 88.3115 c 0,2.50627 1.122949,4.66072 3.176979,6.09624 2.05336,1.43519 4.46352,1.74976 6.81583,0.88852 l 31.92137,-11.67873 c 7.92647,-2.89997 12.84357,-9.93694 12.84357,-18.37617 v -85.27519 l -54.757749,20.03383"
       id="path26"
       inkscape:connector-curvature="0"
       style="fill:#800000;stroke-width:0.33252817" /><path
       d="m 136.9207,159.9912 -33.03667,12.08707 v 75.02933 c 29.1431,-16.82559 33.57304,-52.03468 33.03667,-87.1164"
       id="path28"
       inkscape:connector-curvature="0"
       style="fill:#d40000;fill-opacity:1;stroke-width:0.33252817" /><path
       d="m 35.510248,153.62528 54.75808,20.03383 v 88.3115 c 0,2.50627 -1.12328,4.66072 -3.176309,6.09624 -2.054027,1.43519 -4.463526,1.74976 -6.816828,0.88852 L 48.353816,257.27664 C 40.428339,254.37667 35.510248,247.3397 35.510248,238.90047 v -85.27519"
       id="path30"
       inkscape:connector-curvature="0"
       style="fill:#800000;stroke-width:0.33252817" /><path
       d="m 39.832782,155.20612 22.882261,8.37173 c -2.477667,28.24361 -8.520369,50.60048 -22.882261,54.97722 v -63.34895"
       id="path32"
       inkscape:connector-curvature="0"
       style="fill:#d40000;stroke-width:0.33252817" /><path
       d="m 87.400273,43.789894 c -1.066418,5.498354 -2.73837,11.020317 -4.63245,15.832997 -4.436924,11.271708 -12.708895,19.344162 -24.084351,23.505752 l -5.763379,2.108894 30.865931,11.292989 c 1.06808,0.390721 2.129178,0.726242 3.186617,1.005565 8.637752,-11.903511 13.970509,-28.245941 13.970509,-46.281937 0,-0.757831 -0.01,-1.513003 -0.0283,-2.265182 -0.0838,-3.386799 -1.617414,-6.408483 -3.996321,-8.477473 -1.610766,-1.400941 -3.687072,-1.805296 -5.705851,-1.109647 -2.018113,0.694652 -3.405753,2.29245 -3.812435,4.388042"
       id="path34"
       inkscape:connector-curvature="0"
       style="fill:#d1e1ea;stroke-width:0.33252817" /><path
       d="m 94.915409,34.611784 c 13.966521,0 25.358601,-4.348804 25.358601,-9.682223 0,-5.332755 -11.39208,-9.682223 -25.358601,-9.682223 -13.966848,0 -25.358266,4.349468 -25.358266,9.682223 0,5.333419 11.391418,9.682223 25.358266,9.682223"
       id="path36"
       inkscape:connector-curvature="0"
       style="fill:#63639b;fill-opacity:1;stroke-width:0.33252817" /><path
       d="m 118.39556,21.268093 c 0.0223,0.169257 0.0336,0.339511 0.0336,0.510763 0,5.348051 -10.85837,9.682556 -24.252941,9.682556 -12.413609,0 -22.647829,-3.723318 -24.079363,-8.525358 2.407504,-4.391034 12.603816,-7.688716 24.818573,-7.688716 10.611311,0 19.697971,2.488641 23.480151,6.020755"
       id="path38"
       inkscape:connector-curvature="0"
       style="fill:#cedce3;stroke-width:0.33252817" /><path
       d="m 94.915409,29.345535 c 13.966521,0 25.358601,-4.349136 25.358601,-9.68189 0,-5.333087 -11.39208,-9.6825559 -25.358601,-9.6825559 -13.966848,0 -25.358266,4.3494689 -25.358266,9.6825559 0,5.332754 11.391418,9.68189 25.358266,9.68189"
       id="path40"
       inkscape:connector-curvature="0"
       style="fill:#63639b;fill-opacity:1;stroke-width:0.33252817" /><path
       d="m 118.39556,16.002177 c 0.0223,0.169257 0.0336,0.339179 0.0336,0.510763 0,5.347386 -10.85837,9.682223 -24.252941,9.682223 -12.413609,0 -22.647829,-3.723318 -24.079363,-8.525357 2.407504,-4.391035 12.603816,-7.6887169 24.818573,-7.6887169 10.611311,0 19.697971,2.4889739 23.480151,6.0210879"
       id="path42"
       inkscape:connector-curvature="0"
       style="fill:#cedce3;stroke-width:0.33252817" /><path
       d="m 94.915409,24.427443 c 13.966521,0 25.358601,-4.349136 25.358601,-9.682223 0,-5.3324216 -11.39208,-9.6822227 -25.358601,-9.6822227 -13.966848,0 -25.358266,4.3498011 -25.358266,9.6822227 0,5.333087 11.391418,9.682223 25.358266,9.682223"
       id="path44"
       inkscape:connector-curvature="0"
       style="fill:#63639b;fill-opacity:1;stroke-width:0.33252817" /><path
       d="m 118.39556,11.084085 c 0.0223,0.169257 0.0336,0.339179 0.0336,0.510763 0,5.347386 -10.85837,9.682223 -24.252941,9.682223 -12.413609,0 -22.647829,-3.72365 -24.079363,-8.525357 2.407504,-4.3910347 12.603816,-7.6887167 24.818573,-7.6887167 10.611311,0 19.697971,2.4889734 23.480151,6.0210877"
       id="path46"
       inkscape:connector-curvature="0"
       style="fill:#cedce3;stroke-width:0.33252817" /><path
       d="m 94.915409,18.174251 c 10.061971,0 18.268431,-2.161433 18.268431,-4.812348 0,-2.650249 -8.20646,-4.8113501 -18.268431,-4.8113501 -10.061305,0 -18.268765,2.1611011 -18.268765,4.8113501 0,2.650915 8.20746,4.812348 18.268765,4.812348"
       id="path48"
       inkscape:connector-curvature="0"
       style="fill:#6397c7;fill-opacity:1;stroke-width:0.33252817" /><path
       d="m 246.8615,270.35631 c 0,8.22475 -25.31304,14.89161 -56.53744,14.89161 -31.22439,0 -56.5371,-6.66719 -56.5371,-14.89161 V 185.2128 H 246.8615 v 85.14351"
       id="path50"
       inkscape:connector-curvature="0"
       style="fill:#63639b;fill-opacity:1;stroke-width:0.33252817" /><path
       d="m 181.3877,285.06203 c -11.59127,-0.48516 -22.00938,-1.89707 -30.12273,-3.93946 V 185.2128 h 30.12273 z m 22.47059,-0.24474 c -4.33683,0.28032 -8.86919,0.43063 -13.53423,0.43063 -1.03915,0 -2.07065,-0.008 -3.09617,-0.0226 V 185.2128 h 16.6304 v 99.60449"
       id="path52"
       inkscape:connector-curvature="0"
       style="fill:#637ac7;fill-opacity:1;stroke-width:0.33252817" /><path
       d="m 237.83536,268.42465 v -78.64291 h -95.02193 v 78.64291 c 3.14206,2.1355 11.39076,4.17024 14.182,4.75549 10.75429,2.25487 22.35753,3.04163 33.32863,3.04163 10.97144,0 22.57468,-0.78676 33.32864,-3.04163 2.79124,-0.58525 11.04093,-2.61999 14.18266,-4.75549"
       id="path54"
       inkscape:connector-curvature="0"
       style="fill:#6397c7;fill-opacity:1;stroke-width:0.33252817" /><path
       d="m 181.3877,189.78174 h -30.12273 v 81.9632 c 2.35629,0.67238 4.54001,1.18547 5.73046,1.4352 7.86994,1.65 16.19412,2.51324 24.39227,2.85874 z m 22.47059,0 h -16.6304 v 86.41875 c 1.03649,0.0143 2.06933,0.0213 3.09617,0.0213 4.44025,0 8.98425,-0.12869 13.53423,-0.43229 v -86.00774"
       id="path56"
       inkscape:connector-curvature="0"
       style="fill:#bccdd8;stroke-width:0.33252817" /><path
       d="m 237.83536,268.42465 v -41.4084 h -95.02193 v 41.4084 c 3.14206,2.1355 11.39076,4.17024 14.182,4.75549 10.75429,2.25487 22.35753,3.04163 33.32863,3.04163 10.97144,0 22.57468,-0.78676 33.32864,-3.04163 2.79124,-0.58525 11.04093,-2.61999 14.18266,-4.75549"
       id="path58"
       inkscape:connector-curvature="0"
       style="fill:#800000;stroke-width:0.33252817" /><path
       d="m 181.3877,227.01625 h -30.12273 v 44.72869 c 2.35629,0.67238 4.54001,1.18547 5.73046,1.4352 7.86994,1.65 16.19412,2.51324 24.39227,2.85874 z m 22.47059,0 h -16.6304 v 49.18424 c 1.03649,0.0143 2.06933,0.0213 3.09617,0.0213 4.44025,0 8.98425,-0.12869 13.53423,-0.43229 v -48.77323"
       id="path60"
       inkscape:connector-curvature="0"
       style="fill:#d40000;stroke-width:0.33252817" /><path
       d="m 190.32406,200.10474 c 31.14027,0 56.53744,-6.69047 56.53744,-14.89194 0,-8.20314 -25.39717,-14.89161 -56.53744,-14.89161 -31.1396,0 -56.5371,6.68847 -56.5371,14.89161 0,8.20147 25.3975,14.89194 56.5371,14.89194"
       id="path62"
       inkscape:connector-curvature="0"
       style="fill:#637ac7;fill-opacity:1;stroke-width:0.33252817" /><path
       d="m 237.83536,185.2128 v 8.07345 c -10.06896,4.1034 -27.58554,6.81849 -47.5113,6.81849 -19.92475,0 -37.44134,-2.71542 -47.51063,-6.81849 v -8.07345 h 95.02193"
       id="path64"
       inkscape:connector-curvature="0"
       style="fill:#63afc7;fill-opacity:1;stroke-width:0.33252817" /><path
       d="m 190.32406,239.53028 c 26.16864,0 47.5113,-5.62239 47.5113,-12.51403 0,-6.89298 -21.34266,-12.51437 -47.5113,-12.51437 -26.16797,0 -47.51063,5.62139 -47.51063,12.51437 0,6.89164 21.34266,12.51403 47.51063,12.51403"
       id="path66"
       inkscape:connector-curvature="0"
       style="fill:#d40000;stroke-width:0.33252817" /><path
       d="m 181.3877,239.30815 c -12.44254,-0.62349 -23.16391,-2.52555 -30.12273,-5.16749 V 219.8905 c 6.95882,-2.6416 17.68019,-4.54366 30.12273,-5.16716 z m 8.93636,-24.80627 c 4.70262,0 9.24429,0.1809 13.53423,0.51542 v 23.9969 c -4.28994,0.33552 -8.83161,0.51608 -13.53423,0.51608 -1.04048,0 -2.07231,-0.01 -3.09617,-0.0273 v -24.97419 c 1.02386,-0.0176 2.05569,-0.0269 3.09617,-0.0269"
       id="path68"
       inkscape:connector-curvature="0"
       style="fill:#ff5555;stroke-width:0.33252817" /><path
       d="m 190.32406,195.43472 c 26.16864,0 47.5113,-4.59222 47.5113,-10.22192 0,-5.63037 -21.34266,-10.22258 -47.5113,-10.22258 -26.16797,0 -47.51063,4.59221 -47.51063,10.22258 0,5.6297 21.34266,10.22192 47.51063,10.22192"
       id="path70"
       inkscape:connector-curvature="0"
       style="fill:#cee0e9;stroke-width:0.33252817" /></g></svg>